<?xml version="1.0" encoding="UTF-8"?>
<svg version="1.1" xmlns="http://www.w3.org/2000/svg" width="1024" height="1024">
<path d="M0 0 C1.98 0.495 1.98 0.495 4 1 C4 1.66 4 2.32 4 3 C5.98 3.495 5.98 3.495 8 4 C8 4.66 8 5.32 8 6 C8.70511719 6.2371875 9.41023438 6.474375 10.13671875 6.71875 C13.50286868 8.22502173 15.96983173 10.15584517 18.8125 12.5 C19.78832031 13.2940625 20.76414062 14.088125 21.76953125 14.90625 C22.50558594 15.5971875 23.24164062 16.288125 24 17 C24 17.66 24 18.32 24 19 C24.86818359 19.39445312 24.86818359 19.39445312 25.75390625 19.796875 C31.99298962 23.13885357 36.54778469 28.63450976 41 34 C42.1692457 35.04169162 43.35781781 36.06200124 44.5625 37.0625 C47.44771101 39.46264278 49.84518501 41.89706641 52 45 C52 45.66 52 46.32 52 47 C52.58523438 47.24105469 53.17046875 47.48210937 53.7734375 47.73046875 C56.42721174 49.24358564 57.77633282 50.88968729 59.625 53.3125 C60.21539063 54.07175781 60.80578125 54.83101562 61.4140625 55.61328125 C63.00589839 58.00887664 64.03416822 60.29853981 65 63 C65.66 63 66.32 63 67 63 C67.33 64.32 67.66 65.64 68 67 C68.66 67 69.32 67 70 67 C71.48046875 69.0546875 71.48046875 69.0546875 73.1875 71.875 C75.53386792 75.6817629 77.94146892 79.3771526 80.5625 83 C83.62298913 87.3121948 86.18100163 91.77960142 88.640625 96.45703125 C90.01394637 99.02608933 91.48764516 101.51074568 93 104 C95.16391843 107.75079195 97.28744915 111.51877779 99.375 115.3125 C101.16276173 118.5435923 103.02149631 121.7183464 104.9375 124.875 C107.67311595 129.39194727 110.21137453 133.99705725 112.703125 138.65234375 C114.04261565 141.15407049 114.04261565 141.15407049 116 144 C116 144.99 116 145.98 116 147 C116.66 147 117.32 147 118 147 C118 147.66 118 148.32 118 149 C118.66 149 119.32 149 120 149 C120 149.66 120 150.32 120 151 C121.32 151.33 122.64 151.66 124 152 C124 152.66 124 153.32 124 154 C125.0209375 154.3403125 125.0209375 154.3403125 126.0625 154.6875 C129.6988709 156.31226146 133.02829263 158.32803257 136 161 C136 161.66 136 162.32 136 163 C136.556875 163.061875 137.11375 163.12375 137.6875 163.1875 C140.94617225 164.3324389 142.58271096 166.55108945 145 169 C146.75133252 170.48169538 148.5226785 171.94003457 150.3125 173.375 C153.79502945 176.20160588 157.27376496 179.02792868 160.6875 181.9375 C161.33074219 182.48277344 161.97398437 183.02804687 162.63671875 183.58984375 C164 185 164 185 164 187 C165.32 187.66 166.64 188.32 168 189 C168 189.66 168 190.32 168 191 C169.32 191.66 170.64 192.32 172 193 C172 193.66 172 194.32 172 195 C173.32 195.66 174.64 196.32 176 197 C176 197.66 176 198.32 176 199 C177.32 199.66 178.64 200.32 180 201 C180 201.66 180 202.32 180 203 C180.59941406 203.26554688 181.19882812 203.53109375 181.81640625 203.8046875 C185.75045297 205.9582086 188.17739959 209.57642708 191 213 C191.69923584 213.84087158 191.69923584 213.84087158 192.41259766 214.69873047 C202.46388747 226.80286038 212.15832213 239.13325572 220.453125 252.5234375 C221.93308359 254.89286615 223.48312432 257.19606538 225.0625 259.5 C233.98435547 272.84747243 240.63556736 287.87420498 247.3125 302.4375 C247.73305664 303.34862549 248.15361328 304.25975098 248.58691406 305.19848633 C251.09106516 310.71195014 253.18156028 316.22748748 255 322 C255.41121094 323.21042969 255.82242188 324.42085938 256.24609375 325.66796875 C262.23434395 343.35784885 266.93763146 361.22273974 270.125 379.625 C270.36283203 380.95313721 270.36283203 380.95313721 270.60546875 382.30810547 C273.65665431 400.64406407 274.33199518 419.13529478 274.26074219 437.68847656 C274.25000573 440.99823304 274.26072653 444.30744706 274.2734375 447.6171875 C274.28829587 466.94246642 273.38209728 486.03701388 269.125 504.9375 C268.85671387 506.17201904 268.58842773 507.40653809 268.31201172 508.6784668 C267.55701288 512.12272337 266.78148607 515.56167597 266 519 C265.82210937 519.81049805 265.64421875 520.62099609 265.4609375 521.45605469 C259.8858177 546.83938615 250.34983511 572.87032901 238.52734375 596.00390625 C237.51972071 597.98049672 236.53219417 599.96747854 235.56640625 601.96484375 C231.85196704 609.62524548 227.57709829 616.82778679 223 624 C222.61344238 624.60730957 222.22688477 625.21461914 221.82861328 625.84033203 C216.65849845 633.95217276 211.45953561 642.03966296 205.875 649.875 C205.19179688 650.84179688 204.50859375 651.80859375 203.8046875 652.8046875 C203.20914063 653.52914062 202.61359375 654.25359375 202 655 C201.34 655 200.68 655 200 655 C199.75121094 655.55816406 199.50242187 656.11632812 199.24609375 656.69140625 C196.90965242 661.02004834 193.51421545 664.61372207 190.36328125 668.36914062 C188.9096396 670.10809589 187.47024506 671.85828621 186.03125 673.609375 C185.04213798 674.80247422 184.05256261 675.99518948 183.0625 677.1875 C182.59013916 677.7642749 182.11777832 678.3410498 181.63110352 678.93530273 C180.46483949 680.32834619 179.23729397 681.6696446 178 683 C177.34 683 176.68 683 176 683 C175.34 684.32 174.68 685.64 174 687 C173.34 687 172.68 687 172 687 C171.34 688.32 170.68 689.64 170 691 C169.34 691 168.68 691 168 691 C167.34 692.32 166.68 693.64 166 695 C165.34 695 164.68 695 164 695 C163.34 696.32 162.68 697.64 162 699 C161.34 699 160.68 699 160 699 C159.77957031 699.5671875 159.55914063 700.134375 159.33203125 700.71875 C157.58442608 703.71171604 155.4016968 705.3550867 152.6875 707.5 C151.74261719 708.2528125 150.79773438 709.005625 149.82421875 709.78125 C148.89222656 710.5134375 147.96023438 711.245625 147 712 C146.09894531 712.7528125 145.19789063 713.505625 144.26953125 714.28125 C142 716 142 716 140 716 C139.67 716.99 139.34 717.98 139 719 C138.01 719 137.02 719 136 719 C135.67 719.99 135.34 720.98 135 722 C133.00390625 723.60546875 133.00390625 723.60546875 130.5625 725.1875 C129.75941406 725.71730469 128.95632813 726.24710938 128.12890625 726.79296875 C126 728 126 728 124 728 C124 728.66 124 729.32 124 730 C122.05012739 731.34648215 120.03700593 732.60187034 118 733.8125 C116.80443047 734.52691379 115.60911751 735.24175712 114.4140625 735.95703125 C112.72410156 736.96830078 112.72410156 736.96830078 111 738 C109.45549551 738.99561136 107.91320974 739.99469064 106.375 741 C103 743 103 743 100 743 C100 743.66 100 744.32 100 745 C82.67358374 754.29584181 65.16902923 762.69283443 46.98535156 770.17626953 C45.38699397 770.83943462 43.79744239 771.5238031 42.2109375 772.21484375 C36.17319774 774.79800045 29.93364823 776.49452611 23.59350586 778.1628418 C22.8588208 778.35789307 22.12413574 778.55294434 21.3671875 778.75390625 C20.71862793 778.92220947 20.07006836 779.0905127 19.40185547 779.26391602 C17.29559782 779.90940969 15.29328783 780.6558256 13.24316406 781.45678711 C9.13689914 783.0138731 5.03482864 784.03867678 0.7421875 784.9375 C-0.02993073 785.1029834 -0.80204895 785.2684668 -1.5975647 785.43896484 C-60.40633332 797.9027616 -119.96183035 797.76658234 -178 781 C-179.78217343 780.50774163 -181.56476049 780.01697946 -183.34765625 779.52734375 C-185.25279088 778.99806744 -187.15773951 778.46812116 -189.0625 777.9375 C-189.95646484 777.69193359 -190.85042969 777.44636719 -191.77148438 777.19335938 C-196.49560259 775.85742602 -200.61705626 774.24094733 -205 772 C-206.43938079 771.49328616 -207.88688501 771.00932365 -209.33984375 770.54296875 C-213.88817578 769.07757472 -218.20993069 767.27772152 -222.5625 765.3125 C-223.33770996 764.96437256 -224.11291992 764.61624512 -224.91162109 764.25756836 C-242.26493158 756.3974979 -259.09533179 747.50935472 -275 737 C-276.43279297 736.05447266 -276.43279297 736.05447266 -277.89453125 735.08984375 C-302.47942219 718.5452945 -325.38402618 699.61713241 -345.6875 678 C-346.25146484 677.40147217 -346.81542969 676.80294434 -347.39648438 676.1862793 C-350.0385718 673.32574843 -352.4661927 670.43711886 -354.70703125 667.25 C-356.74077364 664.14889247 -356.74077364 664.14889247 -358.64331055 662.421875 C-360 661 -360 661 -360 659 C-360.99 658.67 -361.98 658.34 -363 658 C-367 652.74285714 -367 652.74285714 -367 649 C-364.0063123 647.98041071 -361.00429975 646.98783913 -358 646 C-357.30003906 645.76023437 -356.60007812 645.52046875 -355.87890625 645.2734375 C-312.69522916 631.26375973 -266.68035744 634.75502215 -222.90350342 643.38882446 C-212.64038046 645.41067655 -202.38147677 647.02720076 -192 648.3125 C-190.09710205 648.55129883 -190.09710205 648.55129883 -188.15576172 648.79492188 C-172.12807798 650.70603636 -156.28663612 651.16287628 -140.1640625 651.13037109 C-137.00515953 651.12500876 -133.84639869 651.13035 -130.6875 651.13671875 C-115.16946675 651.14356192 -99.95243715 650.80576671 -84.625 648.125 C-83.14193359 647.88330078 -83.14193359 647.88330078 -81.62890625 647.63671875 C-76.01444583 646.68248239 -70.64423278 645.41976182 -65.22436523 643.66699219 C-62.97246459 642.99174331 -60.75159162 642.5319338 -58.4375 642.125 C-39.94140627 638.58686699 -21.81329136 631.50571198 -4.4375 624.390625 C-1.16715029 623.06761989 2.12665094 621.84222392 5.4375 620.625 C13.23935719 617.6315956 20.59691894 613.8543077 28 610 C29.18215088 609.38535889 29.18215088 609.38535889 30.38818359 608.75830078 C35.243399 606.2283617 40.08673281 603.67679722 44.92041016 601.10595703 C46.69919432 600.15997297 48.48023051 599.21822557 50.26171875 598.27734375 C55.76597749 595.33284015 61.01015543 592.10692096 66.25390625 588.72265625 C79.77447025 580.24105067 94.4242832 572.6852627 110 569 C110.69416016 568.83467773 111.38832031 568.66935547 112.10351562 568.49902344 C129.07266384 564.510415 145.58784763 562.61313906 163 562 C161.89282603 561.04322958 160.7845351 560.08775162 159.67578125 559.1328125 C159.05872314 558.60059082 158.44166504 558.06836914 157.8059082 557.52001953 C150.1528169 551.07846938 141.57316419 548.27582502 132 545.875 C131.30575928 545.69976807 130.61151855 545.52453613 129.89624023 545.34399414 C126.15263987 544.42967897 122.51317259 543.83410083 118.6875 543.4375 C112.77845052 542.3858895 109.19799204 537.78410467 105.34765625 533.53125 C103.07011537 530.87857364 103.07011537 530.87857364 100 529 C100 528.34 100 527.68 100 527 C99.443125 526.896875 98.88625 526.79375 98.3125 526.6875 C95.52972971 525.86018991 93.47789848 524.52052861 91 523 C83.95793232 519.15887217 76.58129893 516.58573305 69 514 C68.05995117 513.66838867 67.11990234 513.33677734 66.15136719 512.99511719 C46.25133822 506.71122208 23.97994005 506.63664247 3.46850586 509.37548828 C1.64989463 509.61780352 -0.17478542 509.81384095 -2 510 C-3.66128341 508.33871659 -3.15904468 506.4184255 -3.16796875 504.12890625 C-3.08897268 495.35516274 -2.19672458 486.65959267 -1.3125 477.9375 C-1.22485382 477.05893341 -1.13720764 476.18036682 -1.04690552 475.275177 C0.40326826 460.90020095 2.48825688 446.79604008 5.44921875 432.64550781 C5.93835917 430.29607272 6.3999813 427.94428254 6.84375 425.5859375 C13.5449648 390.40455981 27.26446708 361.68439968 49.99169922 333.99511719 C52.23057355 331.26395326 54.32618805 328.55884482 56.21875 325.57421875 C56.8065625 324.72472656 57.394375 323.87523437 58 323 C58.66 323 59.32 323 60 323 C60.23976563 322.46246094 60.47953125 321.92492187 60.7265625 321.37109375 C62.34010657 318.36673409 64.31329375 315.77833564 66.375 313.0625 C67.14585937 312.04285156 67.91671875 311.02320313 68.7109375 309.97265625 C70.18439318 308.05917541 71.67905043 306.16174059 73.19921875 304.28515625 C75.28806815 301.63444714 76.57943827 299.06841335 78 296 C78.3815625 295.2059375 78.763125 294.411875 79.15625 293.59375 C96.7321756 256.29849323 94.93355054 208.90575438 84.66479492 169.66479492 C84.05014987 167.20102309 83.55878076 164.75103031 83.125 162.25 C81.85072847 155.64502588 79.69687419 149.28429898 77.6171875 142.8984375 C77.08043241 141.24740602 76.55484966 139.59275054 76.03125 137.9375 C71.7020224 124.50196608 66.52572759 111.51709039 60 99 C59.11258315 97.17909274 58.22525413 95.35814202 57.33959961 93.53637695 C53.2208289 85.10806483 48.63889814 76.99052675 43.86083984 68.91821289 C43.3602002 68.06219482 42.85956055 67.20617676 42.34375 66.32421875 C41.89193359 65.56197998 41.44011719 64.79974121 40.97460938 64.0144043 C40 62 40 62 40 59 C39.34 59 38.68 59 38 59 C36.6953125 57.0078125 36.6953125 57.0078125 35.125 54.125 C31.3925864 47.50016398 27.21206324 41.23839097 22.91259766 34.96923828 C22.40647949 34.22399902 21.90036133 33.47875977 21.37890625 32.7109375 C20.69163452 31.71006104 20.69163452 31.71006104 19.99047852 30.68896484 C19 29 19 29 19 27 C18.34 27 17.68 27 17 27 C15.625 25.05078125 15.625 25.05078125 14 22.3125 C10.74245706 17.00263614 7.12948905 12.1502701 3.20117188 7.3293457 C0 3.3160936 0 3.3160936 0 0 Z " fill="#00853D" transform="translate(620,93)"/>
<path d="M0 0 C8.17779337 -0.09313349 16.3498857 -0.07269622 24.52734375 0.04150391 C26.00533447 0.06035645 26.00533447 0.06035645 27.51318359 0.07958984 C39.72648481 0.28549102 51.74168092 1.42381205 63.83984375 3.04150391 C64.51061951 3.13113403 65.18139526 3.22076416 65.87249756 3.31311035 C77.11510499 4.83538453 77.11510499 4.83538453 79.52734375 6.04150391 C79.09707341 14.99112697 76.85909875 23.44080255 74.52734375 32.04150391 C74.20507812 33.23388672 73.8828125 34.42626953 73.55078125 35.65478516 C71.51964556 42.94540636 69.22118047 50.1172339 66.7734375 57.27587891 C65.82682608 60.1364852 64.93879568 62.992825 64.0859375 65.88134766 C62.58558623 70.9258546 60.90428256 75.89196664 59.15234375 80.85400391 C58.84635254 81.72347656 58.54036133 82.59294922 58.22509766 83.48876953 C54.33484156 94.48500939 50.06620227 105.29669943 45.52734375 116.04150391 C44.86433888 117.61822405 44.20159864 119.19505549 43.5390625 120.77197266 C31.69045432 148.95816069 31.69045432 148.95816069 26.7734375 158.38916016 C25.7603926 160.54545322 24.91702123 162.64734432 24.10546875 164.88134766 C22.61906493 168.92275911 20.80444288 172.71393961 18.83984375 176.54150391 C18.1274206 177.94635875 17.41518638 179.35130942 16.703125 180.75634766 C16.3417041 181.46645996 15.9802832 182.17657227 15.60791016 182.90820312 C14.56376361 184.96960224 13.53297416 187.03701336 12.5078125 189.10791016 C8.32821519 197.54841188 3.99482702 205.89116021 -0.47265625 214.18261719 C-2.14830343 217.29745547 -3.80975001 220.41985101 -5.47265625 223.54150391 C-6.14054902 224.79414859 -6.80851772 226.04675279 -7.4765625 227.29931641 C-7.80672363 227.91838867 -8.13688477 228.53746094 -8.47705078 229.17529297 C-9.46340915 231.02417069 -10.45037314 232.87272389 -11.4375 234.72119141 C-13.09499848 237.82515189 -14.74948186 240.9307093 -16.40332031 244.03662109 C-17.55644952 246.19860671 -18.71383761 248.35828733 -19.87109375 250.51806641 C-20.6759028 252.02581403 -21.4805927 253.53362526 -22.28515625 255.04150391 C-22.65825928 255.73550293 -23.0313623 256.42950195 -23.41577148 257.14453125 C-25.66252781 261.36490683 -27.62750043 265.62578801 -29.47265625 270.04150391 C-30.09121461 271.44294353 -30.71383336 272.84259589 -31.33984375 274.24072266 C-31.82855957 275.33320312 -31.82855957 275.33320312 -32.32714844 276.44775391 C-32.66391602 277.20056641 -33.00068359 277.95337891 -33.34765625 278.72900391 C-36.49566586 285.79114441 -39.55386856 292.88102476 -42.47265625 300.04150391 C-42.83101563 300.90001953 -43.189375 301.75853516 -43.55859375 302.64306641 C-45.5349861 307.44287639 -47.19092373 312.23514331 -48.62890625 317.22119141 C-49.64716329 320.62480985 -50.77471968 323.98823027 -51.91015625 327.35400391 C-55.1576379 337.0295281 -58.22614509 346.71080563 -60.62890625 356.63525391 C-61.46605993 360.01487432 -62.35785081 363.37581329 -63.26074219 366.73828125 C-66.80221733 379.98020297 -70.23977651 393.0476164 -71.47265625 406.72900391 C-72.74067475 420.3866198 -74.94364735 433.51764683 -85.7265625 443.02978516 C-91.79749134 447.58054562 -98.39856745 450.40821793 -105.47265625 453.04150391 C-106.41496094 453.40115234 -107.35726563 453.76080078 -108.328125 454.13134766 C-122.07727264 459.27030975 -136.38417656 462.95512096 -150.47265625 467.04150391 C-151.44960449 467.32493652 -152.42655273 467.60836914 -153.43310547 467.90039062 C-171.45044185 473.1174798 -171.45044185 473.1174798 -180.34375 475.26806641 C-183.64145276 476.08322889 -186.9224643 476.9507481 -190.20483398 477.82519531 C-197.29513373 479.71321587 -204.39338785 481.54502801 -211.53515625 483.22900391 C-212.51488403 483.46091431 -212.51488403 483.46091431 -213.5144043 483.69750977 C-217.06709067 484.52447849 -220.62652257 485.27425628 -224.20703125 485.97119141 C-230.06884809 487.12946091 -235.85806731 488.55564001 -241.66015625 489.97900391 C-254.47672048 493.08482971 -267.3171594 495.7210237 -280.31445312 497.95239258 C-283.9432348 498.57781435 -287.55334154 499.25624518 -291.16015625 499.99853516 C-311.24554267 504.02248773 -331.02801392 505.45618437 -351.47265625 505.54150391 C-352.44455902 505.55167542 -353.41646179 505.56184692 -354.41781616 505.57232666 C-377.76483605 505.76896116 -400.30153098 502.27627792 -421.47265625 492.04150391 C-422.22675781 491.70119141 -422.98085938 491.36087891 -423.7578125 491.01025391 C-424.48871094 490.66994141 -425.21960938 490.32962891 -425.97265625 489.97900391 C-426.62234375 489.67865234 -427.27203125 489.37830078 -427.94140625 489.06884766 C-429.47265625 488.04150391 -429.47265625 488.04150391 -430.47265625 485.04150391 C-414.39647674 485.79569504 -414.39647674 485.79569504 -407.85986328 486.52905273 C-392.09653237 488.28257986 -376.37948782 488.38344606 -360.54150391 488.35717773 C-357.49545569 488.35253573 -354.44980577 488.35952504 -351.40380859 488.37768555 C-333.86799012 488.48147082 -316.80029444 488.14764523 -299.47265625 485.04150391 C-299.87892998 484.23534637 -299.87892998 484.23534637 -300.29341125 483.41290283 C-300.65073837 482.70156189 -301.00806549 481.99022095 -301.3762207 481.25732422 C-301.90624443 480.20366669 -301.90624443 480.20366669 -302.44697571 479.12872314 C-318.71002473 446.03406316 -325.80479467 409.38693661 -329.47265625 373.04150391 C-329.57126953 372.15567627 -329.66988281 371.26984863 -329.77148438 370.35717773 C-330.64156057 362.0343356 -330.71411178 353.7131598 -330.72265625 345.35400391 C-330.72399567 344.57603455 -330.72533508 343.79806519 -330.72671509 342.996521 C-330.72247013 331.4997065 -330.24259153 320.11227395 -329.16015625 308.66650391 C-329.0425293 307.39846924 -328.92490234 306.13043457 -328.80371094 304.82397461 C-328.04544425 297.51426431 -326.82723619 290.43394826 -325.17333984 283.2734375 C-324.21880315 278.87059544 -323.59773348 274.44208058 -323 269.97900391 C-322.44020917 266.86076163 -321.48525539 264.03990059 -320.47265625 261.04150391 C-319.92052258 258.27700129 -319.47741618 255.50896594 -319.03515625 252.72509766 C-318.46063233 249.98413979 -317.54785197 247.62112368 -316.47265625 245.04150391 C-316.20453125 243.92775391 -315.93640625 242.81400391 -315.66015625 241.66650391 C-311.24343453 223.52760096 -303.59423856 205.79784543 -295.47265625 189.04150391 C-295.0034375 188.06310547 -294.53421875 187.08470703 -294.05078125 186.07666016 C-289.14567598 176.04229159 -283.71604853 166.30709603 -277.47265625 157.04150391 C-276.38538365 155.31481147 -275.30199739 153.5856653 -274.22265625 151.85400391 C-271.04256958 146.82919164 -267.62051927 142.02810724 -264.07421875 137.25634766 C-262.45800461 135.14695362 -262.45800461 135.14695362 -261.47265625 133.04150391 C-260.81265625 133.04150391 -260.15265625 133.04150391 -259.47265625 133.04150391 C-259.41078125 132.48462891 -259.34890625 131.92775391 -259.28515625 131.35400391 C-258.47265625 129.04150391 -258.47265625 129.04150391 -256.2734375 126.85009766 C-252.5766937 123.14304216 -249.5358308 119.04544506 -246.40234375 114.86181641 C-242.79162946 110.14782831 -242.79162946 110.14782831 -239.47265625 109.04150391 C-238.76238287 107.73088041 -238.10133533 106.39316393 -237.47265625 105.04150391 C-233.6366976 100.06859875 -229.34824836 95.96317582 -224.47265625 92.04150391 C-223.60640625 91.15462891 -222.74015625 90.26775391 -221.84765625 89.35400391 C-219.47265625 87.04150391 -219.47265625 87.04150391 -217.28515625 85.97900391 C-215.32455282 85.2123037 -215.32455282 85.2123037 -214.7578125 83.30712891 C-212.89353181 80.02055505 -210.06288843 78.09207174 -207.09765625 75.85400391 C-206.47640869 75.37568115 -205.85516113 74.8973584 -205.21508789 74.40454102 C-203.3079848 72.94065674 -201.39222234 71.48899672 -199.47265625 70.04150391 C-198.89467285 69.60515625 -198.31668945 69.16880859 -197.72119141 68.71923828 C-195.1854566 66.80833587 -192.64358951 64.90620473 -190.09375 63.01416016 C-188.34427759 61.69749314 -186.62100265 60.34529015 -184.92578125 58.95947266 C-182.61864752 57.15564676 -180.34739433 55.70095236 -177.78515625 54.29150391 C-176.63466797 53.64955078 -176.63466797 53.64955078 -175.4609375 52.99462891 C-173.47265625 52.04150391 -173.47265625 52.04150391 -171.47265625 52.04150391 C-171.47265625 51.38150391 -171.47265625 50.72150391 -171.47265625 50.04150391 C-163.49868188 45.7817534 -155.52084342 41.52926086 -147.53515625 37.29150391 C-146.85074463 36.92742432 -146.16633301 36.56334473 -145.46118164 36.18823242 C-138.57458024 32.53767479 -131.67343874 29.03493264 -124.47265625 26.04150391 C-123.55226563 25.64833984 -122.631875 25.25517578 -121.68359375 24.85009766 C-116.49013793 22.64780943 -111.31990497 20.54283273 -105.94140625 18.83837891 C-104.13884048 18.25653806 -102.34846048 17.63655167 -100.56640625 16.99462891 C-68.08828076 5.52299743 -34.3196759 0.4101761 0 0 Z " fill="#F05119" transform="translate(511.47265625,190.95849609375)"/>
<path d="M0 0 C4.28084747 1.87833103 4.99381653 3.75615035 7 8 C7.88025496 9.30233304 8.77802125 10.59290463 9.6875 11.875 C18.50925427 24.92063661 23.84427009 39.19192249 27.1875 54.5 C27.35475586 55.25901611 27.52201172 56.01803223 27.69433594 56.80004883 C35.33314772 93.79316051 29.00651492 131.06278902 11.91699219 164.21435547 C10.58977616 166.79882246 9.29446338 169.39901303 8 172 C7.34 172 6.68 172 6 172 C5.74476563 172.88300781 5.48953125 173.76601563 5.2265625 174.67578125 C3.98030391 178.05338016 2.54343814 180.3322458 0.375 183.1875 C-0.33785156 184.13882813 -1.05070313 185.09015625 -1.78515625 186.0703125 C-2.51605469 187.03710938 -3.24695313 188.00390625 -4 189 C-5.35856416 190.850947 -6.71282914 192.70505823 -8.0625 194.5625 C-8.71476563 195.4596875 -9.36703125 196.356875 -10.0390625 197.28125 C-15.42032916 204.39044537 -15.42032916 204.39044537 -20 212 C-20.66 212 -21.32 212 -22 212 C-22.27328125 212.73992187 -22.5465625 213.47984375 -22.828125 214.2421875 C-23.92605658 216.82598648 -25.1353532 218.84192415 -26.75 221.125 C-29.62436496 225.33887484 -32.09485185 229.67607009 -34.4921875 234.17578125 C-35.49774894 236.05925513 -36.52392929 237.93186428 -37.5703125 239.79296875 C-42.14623826 247.94455509 -45.57424704 256.12408994 -48.1484375 265.10546875 C-49.01106871 268.03762346 -49.94824111 270.94165085 -50.89013672 273.84912109 C-53.14122657 280.8410683 -54.96466369 287.70628747 -56 295 C-56.99 295 -57.98 295 -59 295 C-60.93973967 286.40496577 -61.35082326 278.10574508 -61.3125 269.3125 C-61.31067719 268.65080811 -61.30885437 267.98911621 -61.30697632 267.30737305 C-61.18787053 241.62397396 -52.79618597 217.11455727 -38 196 C-37.34 196 -36.68 196 -36 196 C-35.690625 194.7934375 -35.690625 194.7934375 -35.375 193.5625 C-33.91266204 189.77371529 -32.03818164 186.90664226 -29.7578125 183.57421875 C-7.58350621 151.10117909 4.37559822 113.28928137 5 74 C5.01514648 73.16791016 5.03029297 72.33582031 5.04589844 71.47851562 C5.31071216 54.36250656 5.20220853 37.22676609 2.09326172 20.35522461 C0.85621406 13.58671913 0.32062921 6.87694383 0 0 Z " fill="#21267E" transform="translate(655,224)"/>
<path d="M0 0 C0.33 0 0.66 0 1 0 C1 1.65 1 3.3 1 5 C1.66 5 2.32 5 3 5 C6.48880744 21.52271487 6.3252944 38.88007236 6.26074219 55.68847656 C6.25000573 58.99823304 6.26072653 62.30744706 6.2734375 65.6171875 C6.28829587 84.94246642 5.38209728 104.03701388 1.125 122.9375 C0.85671387 124.17201904 0.58842773 125.40653809 0.31201172 126.6784668 C-0.44298712 130.12272337 -1.21851393 133.56167597 -2 137 C-2.17789063 137.81049805 -2.35578125 138.62099609 -2.5390625 139.45605469 C-8.1141823 164.83938615 -17.65016489 190.87032901 -29.47265625 214.00390625 C-30.48027929 215.98049672 -31.46780583 217.96747854 -32.43359375 219.96484375 C-36.14803296 227.62524548 -40.42290171 234.82778679 -45 242 C-45.38655762 242.60730957 -45.77311523 243.21461914 -46.17138672 243.84033203 C-51.34150155 251.95217276 -56.54046439 260.03966296 -62.125 267.875 C-62.80820312 268.84179688 -63.49140625 269.80859375 -64.1953125 270.8046875 C-64.79085937 271.52914063 -65.38640625 272.25359375 -66 273 C-66.66 273 -67.32 273 -68 273 C-68.37318359 273.83724609 -68.37318359 273.83724609 -68.75390625 274.69140625 C-71.09034758 279.02004834 -74.48578455 282.61372207 -77.63671875 286.36914062 C-79.0903604 288.10809589 -80.52975494 289.85828621 -81.96875 291.609375 C-82.95786202 292.80247422 -83.94743739 293.99518948 -84.9375 295.1875 C-85.64604126 296.05266235 -85.64604126 296.05266235 -86.36889648 296.93530273 C-87.53516051 298.32834619 -88.76270603 299.6696446 -90 301 C-90.66 301 -91.32 301 -92 301 C-92.66 302.32 -93.32 303.64 -94 305 C-94.66 305 -95.32 305 -96 305 C-96.66 306.32 -97.32 307.64 -98 309 C-98.66 309 -99.32 309 -100 309 C-100.66 310.32 -101.32 311.64 -102 313 C-102.66 313 -103.32 313 -104 313 C-104.66 314.32 -105.32 315.64 -106 317 C-106.66 317 -107.32 317 -108 317 C-108.22042969 317.5671875 -108.44085937 318.134375 -108.66796875 318.71875 C-110.41557392 321.71171604 -112.5983032 323.3550867 -115.3125 325.5 C-116.25738281 326.2528125 -117.20226562 327.005625 -118.17578125 327.78125 C-119.10777344 328.5134375 -120.03976562 329.245625 -121 330 C-121.90105469 330.7528125 -122.80210937 331.505625 -123.73046875 332.28125 C-126 334 -126 334 -128 334 C-128.33 334.99 -128.66 335.98 -129 337 C-129.99 337 -130.98 337 -132 337 C-132.33 337.99 -132.66 338.98 -133 340 C-134.99609375 341.60546875 -134.99609375 341.60546875 -137.4375 343.1875 C-138.24058594 343.71730469 -139.04367187 344.24710938 -139.87109375 344.79296875 C-142 346 -142 346 -144 346 C-144 346.66 -144 347.32 -144 348 C-145.94987261 349.34648215 -147.96299407 350.60187034 -150 351.8125 C-151.19556953 352.52691379 -152.39088249 353.24175712 -153.5859375 353.95703125 C-155.27589844 354.96830078 -155.27589844 354.96830078 -157 356 C-158.54450449 356.99561136 -160.08679026 357.99469064 -161.625 359 C-165 361 -165 361 -168 361 C-168 361.66 -168 362.32 -168 363 C-185.32641626 372.29584181 -202.83097077 380.69283443 -221.01464844 388.17626953 C-222.61300603 388.83943462 -224.20255761 389.5238031 -225.7890625 390.21484375 C-231.82680226 392.79800045 -238.06635177 394.49452611 -244.40649414 396.1628418 C-245.1411792 396.35789307 -245.87586426 396.55294434 -246.6328125 396.75390625 C-247.28137207 396.92220947 -247.92993164 397.0905127 -248.59814453 397.26391602 C-250.70440218 397.90940969 -252.70671217 398.6558256 -254.75683594 399.45678711 C-258.86310086 401.0138731 -262.96517136 402.03867678 -267.2578125 402.9375 C-268.02993073 403.1029834 -268.80204895 403.2684668 -269.5975647 403.43896484 C-328.40633332 415.9027616 -387.96183035 415.76658234 -446 399 C-447.78217343 398.50774163 -449.56476049 398.01697946 -451.34765625 397.52734375 C-453.25279088 396.99806744 -455.15773951 396.46812116 -457.0625 395.9375 C-457.95646484 395.69193359 -458.85042969 395.44636719 -459.77148438 395.19335938 C-464.49560259 393.85742602 -468.61705626 392.24094733 -473 390 C-474.43938079 389.49328616 -475.88688501 389.00932365 -477.33984375 388.54296875 C-481.88817578 387.07757472 -486.20993069 385.27772152 -490.5625 383.3125 C-491.33770996 382.96437256 -492.11291992 382.61624512 -492.91162109 382.25756836 C-510.26493158 374.3974979 -527.09533179 365.50935472 -543 355 C-543.95519531 354.36964844 -544.91039062 353.73929688 -545.89453125 353.08984375 C-570.47942219 336.5452945 -593.38402618 317.61713241 -613.6875 296 C-614.25146484 295.40147217 -614.81542969 294.80294434 -615.39648438 294.1862793 C-618.0385718 291.32574843 -620.4661927 288.43711886 -622.70703125 285.25 C-624.74077364 282.14889247 -624.74077364 282.14889247 -626.64331055 280.421875 C-628 279 -628 279 -628 277 C-628.99 276.67 -629.98 276.34 -631 276 C-635 270.74285714 -635 270.74285714 -635 267 C-632.0063123 265.98041071 -629.00429975 264.98783913 -626 264 C-625.30003906 263.76023437 -624.60007812 263.52046875 -623.87890625 263.2734375 C-582.81512477 249.9514977 -533.78247713 250.45296694 -492 261 C-491.01 261.66 -490.02 262.32 -489 263 C-487.34450469 263.38499891 -485.6777567 263.72793135 -484 264 C-484 264.33 -484 264.66 -484 265 C-493.16216506 264.42723111 -502.08854841 263.08613744 -511.125 261.5 C-526.00386197 258.90398719 -540.11088341 257.76023496 -555.1875 257.75 C-556.07983337 257.74932526 -556.97216675 257.74865051 -557.89154053 257.74795532 C-583.08255538 257.77818341 -606.91894957 261.51825899 -631 269 C-627.54343321 276.07025025 -622.33206669 281.28469102 -617 287 C-615.8889458 288.26481617 -614.78401565 289.53505927 -613.6875 290.8125 C-602.95069088 303.1793024 -602.95069088 303.1793024 -590.98828125 314.3203125 C-588.59807124 316.33954689 -586.34400058 318.48374158 -584.0625 320.625 C-576.77005282 327.26364157 -568.92307128 333.1399705 -561 339 C-560.33258789 339.49757813 -559.66517578 339.99515625 -558.97753906 340.5078125 C-542.08805071 353.03467148 -523.91068174 364.19804291 -504.85839844 373.12158203 C-502.94775241 374.02469611 -501.05578368 374.96029519 -499.1640625 375.90234375 C-479.19459929 385.73655176 -458.41912273 392.97642099 -436.828125 398.30224609 C-434.36981856 398.90875851 -431.91883065 399.53708977 -429.46875 400.17578125 C-341.23409729 422.67603826 -244.5222663 404.16511634 -166.75 358.5625 C-137.82593561 341.33409215 -110.6349099 319.92431933 -88.38037109 294.57177734 C-86.89415973 292.87948361 -85.39419462 291.19991028 -83.89453125 289.51953125 C-71.78858556 275.85481758 -60.77328801 261.42229847 -51 246 C-50.45230957 245.14003418 -50.45230957 245.14003418 -49.89355469 244.26269531 C-27.83304747 209.34180273 -10.89796369 168.30495408 -2.9375 127.625 C-2.77467529 126.80193359 -2.61185059 125.97886719 -2.4440918 125.13085938 C-0.4229287 114.50169818 0.86714733 103.75607947 2 93 C2.09788818 92.12891602 2.19577637 91.25783203 2.29663086 90.36035156 C3.30917319 80.18253983 3.19619005 69.96702657 3.1875 59.75 C3.18789276 58.77521698 3.18828552 57.80043396 3.18869019 56.79611206 C3.20494099 32.26871207 3.20494099 32.26871207 0 8 C-0.11678799 5.32321927 -0.0454506 2.68158543 0 0 Z " fill="#006310" transform="translate(888,475)"/>
<path d="M0 0 C4.28084747 1.87833103 4.99381653 3.75615035 7 8 C7.88025496 9.30233304 8.77802125 10.59290463 9.6875 11.875 C18.50925427 24.92063661 23.84427009 39.19192249 27.1875 54.5 C27.35475586 55.25901611 27.52201172 56.01803223 27.69433594 56.80004883 C35.33314772 93.79316051 29.00651492 131.06278902 11.91699219 164.21435547 C10.58977616 166.79882246 9.29446338 169.39901303 8 172 C7.34 172 6.68 172 6 172 C5.74476563 172.88300781 5.48953125 173.76601563 5.2265625 174.67578125 C3.98030391 178.05338016 2.54343814 180.3322458 0.375 183.1875 C-0.33785156 184.13882813 -1.05070313 185.09015625 -1.78515625 186.0703125 C-2.51605469 187.03710938 -3.24695313 188.00390625 -4 189 C-5.35856416 190.850947 -6.71282914 192.70505823 -8.0625 194.5625 C-8.71476563 195.4596875 -9.36703125 196.356875 -10.0390625 197.28125 C-15.42032916 204.39044537 -15.42032916 204.39044537 -20 212 C-20.66 212 -21.32 212 -22 212 C-22.27328125 212.73992187 -22.5465625 213.47984375 -22.828125 214.2421875 C-23.92605658 216.82598648 -25.1353532 218.84192415 -26.75 221.125 C-29.62436496 225.33887484 -32.09485185 229.67607009 -34.4921875 234.17578125 C-35.49774894 236.05925513 -36.52392929 237.93186428 -37.5703125 239.79296875 C-42.14623826 247.94455509 -45.57424704 256.12408994 -48.1484375 265.10546875 C-49.01106871 268.03762346 -49.94824111 270.94165085 -50.89013672 273.84912109 C-53.14122657 280.8410683 -54.96466369 287.70628747 -56 295 C-56.99 295 -57.98 295 -59 295 C-60.93973967 286.40496577 -61.35082326 278.10574508 -61.3125 269.3125 C-61.31067719 268.65080811 -61.30885437 267.98911621 -61.30697632 267.30737305 C-61.18787053 241.62397396 -52.79618597 217.11455727 -38 196 C-37.34 196 -36.68 196 -36 196 C-35.690625 194.7934375 -35.690625 194.7934375 -35.375 193.5625 C-33.91266204 189.77371529 -32.03818164 186.90664226 -29.7578125 183.57421875 C-7.58350621 151.10117909 4.37559822 113.28928137 5 74 C5.01514648 73.16791016 5.03029297 72.33582031 5.04589844 71.47851562 C5.31071216 54.36250656 5.20220853 37.22676609 2.09326172 20.35522461 C0.85621406 13.58671913 0.32062921 6.87694383 0 0 Z M4 9 C4.40841524 16.19025772 4.89440641 23.34046041 5.75056458 30.49186707 C7.03279967 41.40595944 7.36064166 52.20618104 7.3125 63.1875 C7.30926727 64.52637772 7.30926727 64.52637772 7.30596924 65.89230347 C7.11743156 114.75135265 -7.87470609 154.95251089 -34.43554688 195.5859375 C-38.13120424 201.2885998 -41.61612273 207.1079901 -45 213 C-45.82564453 214.42505859 -45.82564453 214.42505859 -46.66796875 215.87890625 C-57.79816517 236.45117162 -62.80096256 263.95537972 -58 287 C-56.60960039 284.37030726 -55.58667921 281.87638383 -54.80859375 279.0078125 C-46.76427428 250.28449159 -33.59774957 225.9709886 -16 202 C14.87753505 159.78103488 34.80107136 117.48412529 26.47827148 63.68554688 C23.71624968 47.74951805 18.9875897 33.06991973 11 19 C10.40316406 17.94167969 9.80632812 16.88335937 9.19140625 15.79296875 C7.18488992 12.33966105 7.18488992 12.33966105 5 9 C4.67 9 4.34 9 4 9 Z " fill="#06085E" transform="translate(655,224)"/>
<path d="M0 0 C0.33 0 0.66 0 1 0 C0.91102206 1.81330909 0.80285946 3.62567795 0.6875 5.4375 C0.62949219 6.44683594 0.57148438 7.45617187 0.51171875 8.49609375 C-0.00681979 12.04669734 -0.98234367 15.04154842 -2.16430664 18.40991211 C-3.81749201 23.53367592 -4.89007587 28.81207887 -6.0625 34.0625 C-6.57357573 36.32436414 -7.08527963 38.58608644 -7.59765625 40.84765625 C-7.83742188 41.9152417 -8.0771875 42.98282715 -8.32421875 44.08276367 C-8.88080313 46.48544674 -9.48735548 48.86143268 -10.12890625 51.2421875 C-11.122079 55.52663677 -11.51881281 59.68938813 -11.875 64.0625 C-13.21204697 77.90478913 -15.30706375 91.33153457 -26.25390625 100.98828125 C-32.32483509 105.53904171 -38.9259112 108.36671403 -46 111 C-46.94230469 111.35964844 -47.88460938 111.71929688 -48.85546875 112.08984375 C-62.60461639 117.22880584 -76.91152031 120.91361705 -91 125 C-91.97694824 125.28343262 -92.95389648 125.56686523 -93.96044922 125.85888672 C-111.9777856 131.07597589 -111.9777856 131.07597589 -120.87109375 133.2265625 C-124.16879651 134.04172498 -127.44980805 134.90924419 -130.73217773 135.78369141 C-137.82247748 137.67171196 -144.9207316 139.5035241 -152.0625 141.1875 C-153.04222778 141.4194104 -153.04222778 141.4194104 -154.04174805 141.65600586 C-157.59443442 142.48297458 -161.15386632 143.23275237 -164.734375 143.9296875 C-170.59619184 145.087957 -176.38541106 146.5141361 -182.1875 147.9375 C-195.00406423 151.0433258 -207.84450315 153.67951979 -220.84179688 155.91088867 C-224.47057855 156.53631044 -228.08068529 157.21474127 -231.6875 157.95703125 C-251.77288642 161.98098382 -271.55535767 163.41468047 -292 163.5 C-293.45785416 163.51525726 -293.45785416 163.51525726 -294.94515991 163.53082275 C-318.2921798 163.72745725 -340.82887473 160.23477401 -362 150 C-362.75410156 149.6596875 -363.50820313 149.319375 -364.28515625 148.96875 C-365.01605469 148.6284375 -365.74695313 148.288125 -366.5 147.9375 C-367.1496875 147.63714844 -367.799375 147.33679688 -368.46875 147.02734375 C-370 146 -370 146 -371 143 C-354.92382049 143.75419114 -354.92382049 143.75419114 -348.38720703 144.48754883 C-332.62387612 146.24107595 -316.90683157 146.34194216 -301.06884766 146.31567383 C-298.02279944 146.31103183 -294.97714952 146.31802114 -291.93115234 146.33618164 C-274.39533387 146.43996691 -257.32763819 146.10614133 -240 143 C-240.28004883 142.46890625 -240.56009766 141.9378125 -240.84863281 141.390625 C-241.21311523 140.68421875 -241.57759766 139.9778125 -241.953125 139.25 C-242.31567383 138.55390625 -242.67822266 137.8578125 -243.05175781 137.140625 C-244.40833321 134.07820145 -244.72296812 131.32438255 -245 128 C-242.18652343 130.45765453 -240.80685406 133.06278989 -239.25 136.4375 C-238.80140625 137.38496094 -238.3528125 138.33242188 -237.890625 139.30859375 C-236.92784526 142.21804655 -237.14143743 143.16968588 -238 146 C-241.74945865 146.48346368 -245.49965697 146.96094932 -249.25 147.4375 C-250.29414063 147.57220703 -251.33828125 147.70691406 -252.4140625 147.84570312 C-265.96441038 149.56040764 -279.29211919 150.23363976 -292.9375 150.25 C-293.82943054 150.25233643 -294.72136108 150.25467285 -295.64031982 150.25708008 C-317.4922694 150.27834577 -339.22730089 148.73076847 -361 147 C-358.18460161 148.12460661 -355.36665779 149.24195134 -352.546875 150.35546875 C-351.7616748 150.66995972 -350.97647461 150.98445068 -350.16748047 151.30847168 C-332.32428584 158.32746731 -313.54533211 160.40940017 -294.5 160.3125 C-293.69298645 160.30968018 -292.8859729 160.30686035 -292.05450439 160.30395508 C-210.85976764 159.88194708 -122.30703733 134.72848266 -46.125 107.625 C-45.31256836 107.33987549 -44.50013672 107.05475098 -43.66308594 106.76098633 C-34.52348332 103.36641658 -25.63447568 98.9330531 -21 90 C-17.82737119 81.57624885 -16.22885543 73.14643868 -15.125 64.25 C-12.1653909 42.59978336 -6.91638921 20.74916762 0 0 Z " fill="#EF2401" transform="translate(452,533)"/>
<path d="M0 0 C8.17779337 -0.09313349 16.3498857 -0.07269622 24.52734375 0.04150391 C26.00533447 0.06035645 26.00533447 0.06035645 27.51318359 0.07958984 C39.72648481 0.28549102 51.74168092 1.42381205 63.83984375 3.04150391 C64.51061951 3.13113403 65.18139526 3.22076416 65.87249756 3.31311035 C77.11510499 4.83538453 77.11510499 4.83538453 79.52734375 6.04150391 C79.15958207 12.34417829 78.36108453 17.37402234 75.52734375 23.04150391 C75.19734375 23.04150391 74.86734375 23.04150391 74.52734375 23.04150391 C74.67030266 21.64537325 74.81685933 20.24961082 74.96484375 18.85400391 C75.04605469 18.07669922 75.12726563 17.29939453 75.2109375 16.49853516 C75.53510697 13.98121917 76.01860711 11.52725267 76.52734375 9.04150391 C72.56981764 8.39066047 68.61119064 7.74676051 64.65234375 7.10400391 C63.54375 6.92160156 62.43515625 6.73919922 61.29296875 6.55126953 C60.19726562 6.37402344 59.1015625 6.19677734 57.97265625 6.01416016 C56.97766113 5.85181885 55.98266602 5.68947754 54.95751953 5.5222168 C45.58860936 4.20923572 36.38207542 3.86883922 26.921875 3.83837891 C26.23160406 3.83555153 25.54133312 3.83272415 24.83014488 3.8298111 C21.16613779 3.81490171 17.50216912 3.8056242 13.83813477 3.80126953 C10.86242208 3.79691424 7.88700414 3.78312626 4.91137695 3.76025391 C-12.75689294 3.62735834 -30.01248645 3.94399396 -47.47265625 7.04150391 C-48.21152069 7.17099426 -48.95038513 7.30048462 -49.7116394 7.43389893 C-54.28316777 8.25505448 -58.81554208 9.21008325 -63.34765625 10.22900391 C-64.01455475 10.37701447 -64.68145325 10.52502502 -65.36856079 10.67752075 C-78.6801522 13.64753529 -91.61213935 17.50394642 -104.47265625 22.04150391 C-105.34293457 22.3410498 -106.21321289 22.6405957 -107.10986328 22.94921875 C-130.70211224 31.12600089 -153.54260163 42.45318414 -174.47265625 56.04150391 C-175.16568848 56.49058105 -175.8587207 56.9396582 -176.57275391 57.40234375 C-193.44753171 68.44933825 -209.05285208 80.95227232 -223.47265625 95.04150391 C-224.44211182 95.98026367 -224.44211182 95.98026367 -225.43115234 96.93798828 C-232.40579259 103.70563038 -239.18466196 110.49485475 -245.1953125 118.15087891 C-246.87738425 120.28592709 -248.58234787 122.36477174 -250.34375 124.43212891 C-263.64912749 140.17043044 -274.83938205 157.48619933 -284.75610352 175.53051758 C-285.42984009 176.75218628 -285.42984009 176.75218628 -286.1171875 177.99853516 C-286.50237549 178.70985596 -286.88756348 179.42117676 -287.28442383 180.15405273 C-288.4936316 182.07482226 -289.80873834 183.50731214 -291.47265625 185.04150391 C-291.1900694 179.67235375 -288.93064062 176.17474995 -286.1484375 171.75244141 C-284.47455941 169.04458268 -282.96496818 166.29037784 -281.47265625 163.47900391 C-276.92933785 155.09494211 -271.3875303 147.45452429 -265.81152344 139.73754883 C-263.45814219 136.5040762 -263.45814219 136.5040762 -261.47265625 133.04150391 C-260.81265625 133.04150391 -260.15265625 133.04150391 -259.47265625 133.04150391 C-259.41078125 132.48462891 -259.34890625 131.92775391 -259.28515625 131.35400391 C-258.47265625 129.04150391 -258.47265625 129.04150391 -256.2734375 126.85009766 C-252.5766937 123.14304216 -249.5358308 119.04544506 -246.40234375 114.86181641 C-242.79162946 110.14782831 -242.79162946 110.14782831 -239.47265625 109.04150391 C-238.76238287 107.73088041 -238.10133533 106.39316393 -237.47265625 105.04150391 C-233.6366976 100.06859875 -229.34824836 95.96317582 -224.47265625 92.04150391 C-223.60640625 91.15462891 -222.74015625 90.26775391 -221.84765625 89.35400391 C-219.47265625 87.04150391 -219.47265625 87.04150391 -217.28515625 85.97900391 C-215.32455282 85.2123037 -215.32455282 85.2123037 -214.7578125 83.30712891 C-212.89353181 80.02055505 -210.06288843 78.09207174 -207.09765625 75.85400391 C-206.47640869 75.37568115 -205.85516113 74.8973584 -205.21508789 74.40454102 C-203.3079848 72.94065674 -201.39222234 71.48899672 -199.47265625 70.04150391 C-198.89467285 69.60515625 -198.31668945 69.16880859 -197.72119141 68.71923828 C-195.1854566 66.80833587 -192.64358951 64.90620473 -190.09375 63.01416016 C-188.34427759 61.69749314 -186.62100265 60.34529015 -184.92578125 58.95947266 C-182.61864752 57.15564676 -180.34739433 55.70095236 -177.78515625 54.29150391 C-177.01816406 53.86353516 -176.25117188 53.43556641 -175.4609375 52.99462891 C-173.47265625 52.04150391 -173.47265625 52.04150391 -171.47265625 52.04150391 C-171.47265625 51.38150391 -171.47265625 50.72150391 -171.47265625 50.04150391 C-163.49868188 45.7817534 -155.52084342 41.52926086 -147.53515625 37.29150391 C-146.50853882 36.74538452 -146.50853882 36.74538452 -145.46118164 36.18823242 C-138.57458024 32.53767479 -131.67343874 29.03493264 -124.47265625 26.04150391 C-123.55226563 25.64833984 -122.631875 25.25517578 -121.68359375 24.85009766 C-116.49013793 22.64780943 -111.31990497 20.54283273 -105.94140625 18.83837891 C-104.13884048 18.25653806 -102.34846048 17.63655167 -100.56640625 16.99462891 C-68.08828076 5.52299743 -34.3196759 0.4101761 0 0 Z " fill="#EF2903" transform="translate(511.47265625,190.95849609375)"/>
<path d="M0 0 C5.04424468 0.44508041 7.44443409 2.60980925 11 6 C11 6.66 11 7.32 11 8 C11.57878906 8.26296875 12.15757812 8.5259375 12.75390625 8.796875 C18.99298962 12.13885357 23.54778469 17.63450976 28 23 C29.1692457 24.04169162 30.35781781 25.06200124 31.5625 26.0625 C34.44771101 28.46264278 36.84518501 30.89706641 39 34 C39 34.66 39 35.32 39 36 C39.58523438 36.24105469 40.17046875 36.48210937 40.7734375 36.73046875 C43.42721174 38.24358564 44.77633282 39.88968729 46.625 42.3125 C47.21539063 43.07175781 47.80578125 43.83101562 48.4140625 44.61328125 C50.00589839 47.00887664 51.03416822 49.29853981 52 52 C52.66 52 53.32 52 54 52 C54.495 53.98 54.495 53.98 55 56 C55.66 56 56.32 56 57 56 C58.48046875 58.0546875 58.48046875 58.0546875 60.1875 60.875 C62.53386792 64.6817629 64.94146892 68.3771526 67.5625 72 C70.62298913 76.3121948 73.18100163 80.77960142 75.640625 85.45703125 C77.01394637 88.02608933 78.48764516 90.51074568 80 93 C82.16391843 96.75079195 84.28744915 100.51877779 86.375 104.3125 C88.16276173 107.5435923 90.02149631 110.7183464 91.9375 113.875 C94.67311595 118.39194727 97.21137453 122.99705725 99.703125 127.65234375 C101.04261565 130.15407049 101.04261565 130.15407049 103 133 C103 133.99 103 134.98 103 136 C103.66 136 104.32 136 105 136 C105 136.66 105 137.32 105 138 C105.66 138 106.32 138 107 138 C107 138.66 107 139.32 107 140 C108.32 140.33 109.64 140.66 111 141 C111 141.66 111 142.32 111 143 C112.0209375 143.3403125 112.0209375 143.3403125 113.0625 143.6875 C116.6988709 145.31226146 120.02829263 147.32803257 123 150 C123 150.66 123 151.32 123 152 C123.556875 152.061875 124.11375 152.12375 124.6875 152.1875 C127.94617225 153.3324389 129.58271096 155.55108945 132 158 C133.75133252 159.48169538 135.5226785 160.94003457 137.3125 162.375 C140.79502945 165.20160588 144.27376496 168.02792868 147.6875 170.9375 C148.33074219 171.48277344 148.97398437 172.02804687 149.63671875 172.58984375 C151 174 151 174 151 176 C152.32 176.66 153.64 177.32 155 178 C155 178.66 155 179.32 155 180 C156.32 180.66 157.64 181.32 159 182 C159 182.66 159 183.32 159 184 C160.32 184.66 161.64 185.32 163 186 C163 186.66 163 187.32 163 188 C164.32 188.66 165.64 189.32 167 190 C167 190.66 167 191.32 167 192 C167.59941406 192.26554688 168.19882812 192.53109375 168.81640625 192.8046875 C172.75045297 194.9582086 175.17739959 198.57642708 178 202 C178.69923584 202.84087158 178.69923584 202.84087158 179.41259766 203.69873047 C189.46388747 215.80286038 199.15832213 228.13325572 207.453125 241.5234375 C208.93308359 243.89286615 210.48312432 246.19606538 212.0625 248.5 C220.98435547 261.84747243 227.63556736 276.87420498 234.3125 291.4375 C234.94333496 292.80418823 234.94333496 292.80418823 235.58691406 294.19848633 C237.7808591 299.02896024 239.71820612 303.83852194 241.32739258 308.89428711 C241.9704671 310.90754218 242.66658855 312.89210251 243.38671875 314.87890625 C247.70368962 327.10384176 247.70368962 327.10384176 247 334 C245.19262797 331.28894196 244.3851075 329.42550928 243.44140625 326.37109375 C242.99522949 324.96234985 242.99522949 324.96234985 242.54003906 323.52514648 C242.21745117 322.50622314 241.89486328 321.4872998 241.5625 320.4375 C227.52696247 277.43493271 205.16806282 237.73208333 175 204 C174.18660156 203.08734375 173.37320313 202.1746875 172.53515625 201.234375 C171.06122853 199.59163846 169.58240929 197.95327138 168.09765625 196.3203125 C165.29627313 193.22157586 162.55827574 190.06836464 159.82421875 186.91015625 C158.03758366 184.9267255 158.03758366 184.9267255 155.76953125 183.37109375 C155.18558594 182.91863281 154.60164062 182.46617187 154 182 C154 181.34 154 180.68 154 180 C153.42378906 179.75378906 152.84757813 179.50757813 152.25390625 179.25390625 C149.6375847 177.79837901 147.99108164 176.11391269 145.9375 173.9375 C141.81539475 169.72109822 137.4718933 165.99050961 132.87109375 162.30859375 C128.92457077 159.13526711 125.0864845 155.83703984 121.23046875 152.5546875 C119.03079346 150.74944144 116.78348497 149.19065038 114.36328125 147.6953125 C102.13459947 139.97626359 96.65962046 129.55431004 90 117 C87.41058663 112.22105908 84.80142457 107.45306788 82.1875 102.6875 C81.85293793 102.07580963 81.51837585 101.46411926 81.17367554 100.83389282 C66.97250608 74.90775362 50.48322987 48.97475036 29.16015625 28.23828125 C27 26 27 26 27 24 C26.46632813 23.79632813 25.93265625 23.59265625 25.3828125 23.3828125 C22.01032343 21.4256631 19.5480064 18.66812825 16.875 15.875 C12.08011888 10.95402748 7.21499327 6.54107598 1.73046875 2.390625 C1.15941406 1.93171875 0.58835937 1.4728125 0 1 C0 0.67 0 0.34 0 0 Z " fill="#006614" transform="translate(633,104)"/>
<path d="M0 0 C-2.23675486 2.23675486 -4.13279801 2.7713368 -7.10058594 3.69775391 C-21.08495839 8.10400665 -33.42132792 15.61374089 -46.05078125 22.91796875 C-93.71621887 50.47498686 -144.30898993 72.25281661 -199 81 C-199.6801416 81.11037598 -200.3602832 81.22075195 -201.06103516 81.33447266 C-234.87239157 86.6873052 -271.28320361 85.47388404 -305 80 C-305 79.67 -305 79.34 -305 79 C-302.98177083 79.03255208 -300.96354167 79.06510417 -298.9453125 79.09765625 C-296.91814596 79.12649242 -296.91814596 79.12649242 -295 78 C-292.90772887 78.18921787 -290.81605005 78.38797874 -288.72851562 78.6237793 C-274.66341401 80.17012218 -260.63260448 80.20161835 -246.5 80.1875 C-244.94391022 80.18845169 -244.94391022 80.18845169 -243.35638428 80.18942261 C-226.96470587 80.18829128 -210.81652916 79.95689629 -194.625 77.125 C-193.14193359 76.88330078 -193.14193359 76.88330078 -191.62890625 76.63671875 C-186.01444583 75.68248239 -180.64423278 74.41976182 -175.22436523 72.66699219 C-172.97246459 71.99174331 -170.75159162 71.5319338 -168.4375 71.125 C-149.94140627 67.58686699 -131.81329136 60.50571198 -114.4375 53.390625 C-111.16715029 52.06761989 -107.87334906 50.84222392 -104.5625 49.625 C-96.76064281 46.6315956 -89.40308106 42.8543077 -82 39 C-81.21189941 38.59023926 -80.42379883 38.18047852 -79.61181641 37.75830078 C-74.756601 35.2283617 -69.91326719 32.67679722 -65.07958984 30.10595703 C-63.30080568 29.15997297 -61.51976949 28.21822557 -59.73828125 27.27734375 C-54.23402251 24.33284015 -48.98984457 21.10692096 -43.74609375 17.72265625 C-13.85795839 -1.02651544 -13.85795839 -1.02651544 0 0 Z " fill="#016916" transform="translate(730,664)"/>
<path d="M0 0 C0.33 0 0.66 0 1 0 C0.29844543 8.91077475 -0.58007479 17.79697049 -1.5 26.6875 C-2.59877864 37.45301692 -3.54022507 48.18736195 -4 59 C-3.42142746 58.83832336 -2.84285492 58.67664673 -2.24674988 58.5100708 C1.38104135 57.68646761 5.05850808 57.81600145 8.76171875 57.796875 C9.62577835 57.79117493 10.48983795 57.78547485 11.38008118 57.77960205 C13.21504498 57.77015766 15.0500257 57.7636203 16.88500977 57.75976562 C19.63264802 57.75019114 22.37949457 57.71921955 25.12695312 57.6875 C53.6142377 57.51448269 83.66072694 64.07035793 104.58203125 84.51953125 C106.02716693 86.002021 107.44984897 87.50775212 108.82275391 89.05737305 C111.32759472 91.29229325 113.00088695 91.83342934 116.25390625 92.5625 C117.27419922 92.80226563 118.29449219 93.04203125 119.34570312 93.2890625 C120.40724609 93.52367187 121.46878906 93.75828125 122.5625 94 C137.21974822 97.32413605 151.70933953 101.28993809 162 113 C161.67 113.66 161.34 114.32 161 115 C159.24972675 113.72954304 157.49979256 112.45861894 155.75 111.1875 C154.77546875 110.47980469 153.8009375 109.77210938 152.796875 109.04296875 C151.1488258 107.83915627 149.51270159 106.61816169 147.90625 105.359375 C142.09889384 101.21806364 134.82915224 99.58408331 128 97.875 C127.30592041 97.69984863 126.61184082 97.52469727 125.89672852 97.34423828 C122.15298719 96.42966224 118.51336087 95.83412035 114.6875 95.4375 C108.77845052 94.3858895 105.19799204 89.78410467 101.34765625 85.53125 C99.07011537 82.87857364 99.07011537 82.87857364 96 81 C96 80.34 96 79.68 96 79 C95.443125 78.896875 94.88625 78.79375 94.3125 78.6875 C91.52972971 77.86018991 89.47789848 76.52052861 87 75 C79.95793232 71.15887217 72.58129893 68.58573305 65 66 C64.05995117 65.66838867 63.11990234 65.33677734 62.15136719 64.99511719 C42.25133822 58.71122208 19.97994005 58.63664247 -0.53149414 61.37548828 C-2.35010537 61.61780352 -4.17478542 61.81384095 -6 62 C-7.65066874 60.34933126 -7.16898837 58.49137817 -7.18359375 56.2109375 C-7.11323297 47.87380238 -6.2129514 39.61884408 -5.34594727 31.33447266 C-5.06096263 28.61030429 -4.78463177 25.88536246 -4.50976562 23.16015625 C-4.33122573 21.41140756 -4.1522064 19.66270775 -3.97265625 17.9140625 C-3.89032242 17.10772369 -3.80798859 16.30138489 -3.72315979 15.47061157 C-2.49045636 3.73568454 -2.49045636 3.73568454 0 0 Z " fill="#005E0A" transform="translate(624,541)"/>
<path d="M0 0 C2.77692807 2.46126239 4.29012908 5.1160719 6.00390625 8.390625 C6.86024658 10.02584106 6.86024658 10.02584106 7.73388672 11.6940918 C8.63905029 13.45426636 8.63905029 13.45426636 9.5625 15.25 C9.87302307 15.85268707 10.18354614 16.45537415 10.503479 17.07632446 C24.50843408 44.32647458 34.50741011 72.04858738 41 102 C41.16870605 102.76779785 41.33741211 103.5355957 41.51123047 104.32666016 C42.49198872 108.86517437 43.29856019 113.41044679 44 118 C44.10296387 118.65419922 44.20592773 119.30839844 44.31201172 119.98242188 C48.39389669 147.24657615 49.54756089 180.8087181 40 207 C38 204 38 204 38.12426758 201.81103516 C38.29595459 200.97878418 38.4676416 200.1465332 38.64453125 199.2890625 C38.82693359 198.37382812 39.00933594 197.45859375 39.19726562 196.515625 C39.40029297 195.56171875 39.60332031 194.6078125 39.8125 193.625 C40.00392578 192.67882812 40.19535156 191.73265625 40.39257812 190.7578125 C40.75203244 188.98666044 41.11648239 187.2165096 41.48754883 185.44775391 C41.65665771 184.63999512 41.8257666 183.83223633 42 183 C42.27239502 181.88419556 42.27239502 181.88419556 42.55029297 180.74584961 C43.18684085 176.85917535 43.20226807 173.02276147 43.23828125 169.08984375 C43.24793915 168.21764191 43.25759705 167.34544006 43.26754761 166.44680786 C43.2924447 163.61032883 43.30496043 160.77407672 43.3125 157.9375 C43.31545074 156.97302948 43.31840149 156.00855896 43.32144165 155.01486206 C43.33509236 135.40693752 41.6462863 116.70103538 36.66479492 97.66479492 C36.05014987 95.20102309 35.55878076 92.75103031 35.125 90.25 C33.85072847 83.64502588 31.69687419 77.28429898 29.6171875 70.8984375 C29.08043241 69.24740602 28.55484966 67.59275054 28.03125 65.9375 C23.70351042 52.50658407 18.53995805 39.50567587 12 27 C10.63581214 24.29665526 9.2871468 21.58562723 7.9375 18.875 C7.25937201 17.51810048 6.58099264 16.16132656 5.90234375 14.8046875 C3.6015625 10.203125 1.30078125 5.6015625 -1 1 C-0.67 0.67 -0.34 0.34 0 0 Z " fill="#006713" transform="translate(668,165)"/>
<path d="M0 0 C1.3808476 4.14254281 -0.23131748 6.65132829 -1.9375 10.4375 C-2.2567041 11.15252686 -2.5759082 11.86755371 -2.90478516 12.60424805 C-7.39271734 22.35716333 -13.53376045 30.63289761 -20.39453125 38.83984375 C-25.51390932 44.99478276 -30.35867997 51.37653243 -35.2421875 57.71875 C-36.37752979 59.192172 -37.51537668 60.66366902 -38.65625 62.1328125 C-51.62461951 78.8518379 -61.49221612 96.18131586 -69 116 C-69.33 116 -69.66 116 -70 116 C-69.5642938 109.05636474 -68.03606105 103.9464823 -64.9375 97.75 C-64.53120361 96.92008545 -64.12490723 96.0901709 -63.70629883 95.23510742 C-57.58251214 82.91953175 -49.95657182 72.00655902 -41.60839844 61.11865234 C-39.92701252 58.90385772 -38.27686545 56.66840639 -36.6328125 54.42578125 C-36.0872168 53.68497314 -35.54162109 52.94416504 -34.97949219 52.1809082 C-33.92615396 50.74915677 -32.87717302 49.31418737 -31.83300781 47.87573242 C-30.60311628 46.21403928 -29.30748796 44.60135334 -28 43 C-27.34 43 -26.68 43 -26 43 C-25.76023437 42.46246094 -25.52046875 41.92492187 -25.2734375 41.37109375 C-23.65989343 38.36673409 -21.68670625 35.77833564 -19.625 33.0625 C-18.85414063 32.04285156 -18.08328125 31.02320313 -17.2890625 29.97265625 C-15.81560682 28.05917541 -14.32094957 26.16174059 -12.80078125 24.28515625 C-10.71193185 21.63444714 -9.42056173 19.06841335 -8 16 C-7.58363281 15.10152344 -7.16726563 14.20304687 -6.73828125 13.27734375 C-4.16112971 7.7222957 -4.16112971 7.7222957 -2 2 C-1.34 2 -0.68 2 0 2 C0 1.34 0 0.68 0 0 Z " fill="#006514" transform="translate(706,373)"/>
<path d="M0 0 C2 3 2 3 1.56640625 5.21484375 C1.23511719 6.11332031 0.90382813 7.01179687 0.5625 7.9375 C-0.00984375 9.53078125 -0.00984375 9.53078125 -0.59375 11.15625 C-0.92632813 12.05923828 -0.92632813 12.05923828 -1.265625 12.98046875 C-2.08703056 15.23933403 -2.87359301 17.50867259 -3.65625 19.78125 C-8.34380087 33.37553782 -13.40338588 46.75117891 -19 60 C-19.66300487 61.57672015 -20.32574511 63.15355159 -20.98828125 64.73046875 C-32.46299085 92.02720415 -32.46299085 92.02720415 -37.828125 102.625 C-39.34708697 105.70342959 -40.68974178 108.82779588 -42 112 C-42.66 112 -43.32 112 -44 112 C-41.97481347 105.34495336 -39.31014734 99.20445475 -36.3125 92.9375 C-24.78061528 68.29244198 -14.98111064 42.67343963 -6 17 C-5.39917922 15.30312261 -4.79761043 13.60650989 -4.1953125 11.91015625 C-2.78844953 7.9430241 -1.39098131 3.97272693 0 0 Z " fill="#EF2703" transform="translate(576,247)"/>
<path d="M0 0 C0.33 0 0.66 0 1 0 C0.54992816 7.34327739 -0.12661815 14.52609868 -1.5 21.7578125 C-2.93377298 31.05493417 -3.18689038 40.36988633 -3.31640625 49.76171875 C-3.33718735 51.03352493 -3.35796844 52.30533112 -3.37937927 53.61567688 C-3.43326231 56.95772287 -3.48363429 60.29978243 -3.53222656 63.64190674 C-3.5829299 67.06795957 -3.63835807 70.49393583 -3.69335938 73.91992188 C-3.79987258 80.61321981 -3.9017487 87.30657595 -4 94 C-4.66 94 -5.32 94 -6 94 C-7.06430261 84.77645658 -7.24052262 75.58432761 -7.25 66.3125 C-7.25133942 65.53453064 -7.25267883 64.75656128 -7.25405884 63.95501709 C-7.24981388 52.45820259 -6.76993528 41.07077005 -5.6875 29.625 C-5.51105957 27.722948 -5.51105957 27.722948 -5.33105469 25.7824707 C-2.96399966 2.96399966 -2.96399966 2.96399966 0 0 Z " fill="#EE2F04" transform="translate(188,470)"/>
<path d="M0 0 C0.33 0 0.66 0 1 0 C1.12004395 0.86351074 1.24008789 1.72702148 1.36376953 2.61669922 C5.41364897 31.39255939 11.39340446 58.66105995 21.0637207 86.09106445 C21.91103934 88.72360722 22.52382853 91.27888564 23 94 C22.505 93.01 22.505 93.01 22 92 C21.34 92 20.68 92 20 92 C15.45923494 80.45641022 11.07406845 69.03198739 8 57 C7.66355469 55.73027344 7.32710937 54.46054687 6.98046875 53.15234375 C4.5481771 43.83971988 2.65044774 34.48219023 1 25 C0.80921875 24.0615625 0.6184375 23.123125 0.421875 22.15625 C-0.16010717 17.80216119 -0.1054424 13.51173168 -0.0625 9.125 C-0.05798828 8.24585938 -0.05347656 7.36671875 -0.04882812 6.4609375 C-0.03712337 4.30726197 -0.01919069 2.15362183 0 0 Z " fill="#EE2A03" transform="translate(184,566)"/>
<path d="M0 0 C1.32 0.33 2.64 0.66 4 1 C4 1.66 4 2.32 4 3 C5.32 3.33 6.64 3.66 8 4 C8 4.66 8 5.32 8 6 C9.32 6.66 10.64 7.32 12 8 C12 8.66 12 9.32 12 10 C11.01 10 10.02 10 9 10 C9.32572998 10.44053711 9.65145996 10.88107422 9.98706055 11.33496094 C21.10563417 26.42348401 31.3535984 41.98567294 41.1875 57.9375 C41.64527832 58.67677734 42.10305664 59.41605469 42.57470703 60.17773438 C44.7240584 63.7012612 46.62821673 67.08390361 48 71 C47.01 71 46.02 71 45 71 C44.15885829 69.56705502 43.32734313 68.12845595 42.5 66.6875 C42.0359375 65.88699219 41.571875 65.08648437 41.09375 64.26171875 C40 62 40 62 40 59 C39.34 59 38.68 59 38 59 C36.6953125 57.0078125 36.6953125 57.0078125 35.125 54.125 C31.3925864 47.50016398 27.21206324 41.23839097 22.91259766 34.96923828 C22.15342041 33.85137939 22.15342041 33.85137939 21.37890625 32.7109375 C20.9207251 32.04368652 20.46254395 31.37643555 19.99047852 30.68896484 C19 29 19 29 19 27 C18.34 27 17.68 27 17 27 C15.625 25.05078125 15.625 25.05078125 14 22.3125 C10.74245706 17.00263614 7.12948905 12.1502701 3.20117188 7.3293457 C0 3.3160936 0 3.3160936 0 0 Z " fill="#006312" transform="translate(620,93)"/>
<path d="M0 0 C2.14882248 0.1719058 4.29704827 0.35441611 6.44165039 0.57275391 C21.45868979 2.08779708 36.48016818 2.35969182 51.5625 2.625 C52.71418671 2.64528259 53.86587341 2.66556519 55.05245972 2.6864624 C61.70149825 2.80105512 68.35064172 2.90580931 75 3 C75 3.33 75 3.66 75 4 C71.7 4.33 68.4 4.66 65 5 C65 5.33 65 5.66 65 6 C40.26250868 6.34229631 15.48277675 5.97475132 -9 2 C-9 1.67 -9 1.34 -9 1 C-7.700625 1.020625 -6.40125 1.04125 -5.0625 1.0625 C-3.70834367 1.08399454 -2.35243917 1.07148199 -1 1 C-0.67 0.67 -0.34 0.34 0 0 Z " fill="#02711D" transform="translate(434,742)"/>
<path d="M0 0 C0.99 0 1.98 0 3 0 C1.59907764 4.45317349 -0.13048689 8.6273116 -2.0625 12.875 C-11.39236647 33.90707079 -18.54616069 55.65770176 -24 78 C-24.33 78 -24.66 78 -25 78 C-25.34624355 71.85738302 -24.94514212 66.89537898 -22.78125 61.125 C-21.87407558 58.78346552 -21.87407558 58.78346552 -21.125 55.375 C-16.94273782 38.17376038 -9.73365377 21.36833719 -2.12890625 5.43359375 C-0.9196027 2.94606106 -0.9196027 2.94606106 0 0 Z " fill="#EE2B03" transform="translate(217,377)"/>
<path d="M0 0 C0.33 0 0.66 0 1 0 C1 1.65 1 3.3 1 5 C1.66 5 2.32 5 3 5 C7.15980621 22.90962686 6.26045604 42.19310497 6.125 60.4375 C6.11493276 62.83788682 6.10581364 65.23827781 6.09765625 67.63867188 C6.07597933 73.42587478 6.04280868 79.21291674 6 85 C3.62976952 82.62976952 3.74459698 82.15061784 3.71289062 78.93115234 C3.69264832 77.66500343 3.69264832 77.66500343 3.67199707 76.37327576 C3.66680054 75.45345413 3.661604 74.53363251 3.65625 73.5859375 C3.63540344 72.15430016 3.63540344 72.15430016 3.61413574 70.69374084 C3.58437099 68.64775637 3.55850634 66.60171219 3.53613281 64.55563354 C3.5320363 36.13045768 3.5320363 36.13045768 0 8 C-0.11678799 5.32321927 -0.0454506 2.68158543 0 0 Z " fill="#005603" transform="translate(888,475)"/>
<path d="M0 0 C0.703125 1.60546875 0.703125 1.60546875 1 4 C-0.328125 6.98828125 -0.328125 6.98828125 -2.25 10.3125 C-4.81750082 14.79501693 -7.0160531 19.23030383 -9 24 C-9.61824071 25.40157979 -10.24085992 26.80123404 -10.8671875 28.19921875 C-11.19332031 28.92834473 -11.51945312 29.6574707 -11.85546875 30.40869141 C-12.36013672 31.53670166 -12.36013672 31.53670166 -12.875 32.6875 C-16.02575295 39.74908146 -19.07964443 46.83951279 -22 54 C-22.66 54 -23.32 54 -24 54 C-23.4273456 49.70568809 -22.39192109 46.16257894 -20.62890625 42.2109375 C-20.14139893 41.11313965 -19.6538916 40.0153418 -19.15161133 38.88427734 C-18.62720459 37.72621582 -18.10279785 36.5681543 -17.5625 35.375 C-17.02842529 34.18471191 -16.49435059 32.99442383 -15.9440918 31.76806641 C-2.88423165 2.88423165 -2.88423165 2.88423165 0 0 Z " fill="#F02702" transform="translate(491,437)"/>
<path d="M0 0 C0.33 0 0.66 0 1 0 C0.26742361 9.26256045 -0.62632574 18.50625321 -1.5625 27.75 C-1.70256784 29.14061555 -1.84254232 30.5312405 -1.98242188 31.921875 C-2.32070165 35.28134316 -2.65991233 38.64071446 -3 42 C-3.33 42 -3.66 42 -4 42 C-4.04898438 42.89203125 -4.09796875 43.7840625 -4.1484375 44.703125 C-4.22320313 45.87359375 -4.29796875 47.0440625 -4.375 48.25 C-4.44460938 49.41015625 -4.51421875 50.5703125 -4.5859375 51.765625 C-4.97020566 54.76726687 -5.59116773 56.39983939 -7 59 C-7.10465428 52.43214608 -6.8449597 46.0152899 -6.16015625 39.484375 C-6.07374374 38.62491272 -5.98733124 37.76545044 -5.89830017 36.87994385 C-5.71652467 35.08150815 -5.53238422 33.28331 -5.34594727 31.48535156 C-5.06181205 28.74336107 -4.78517965 26.00069139 -4.50976562 23.2578125 C-4.33116419 21.49995575 -4.15214243 19.74214164 -3.97265625 17.984375 C-3.89032242 17.17176208 -3.80798859 16.35914917 -3.72315979 15.52191162 C-2.49640182 3.74460273 -2.49640182 3.74460273 0 0 Z " fill="#007728" transform="translate(624,541)"/>
<path d="M0 0 C1.01320313 0.05220703 2.02640625 0.10441406 3.0703125 0.15820312 C5.54727608 0.28672482 8.02371337 0.42162766 10.5 0.5625 C10.5 0.8925 10.5 1.2225 10.5 1.5625 C9.7972998 1.60213867 9.09459961 1.64177734 8.37060547 1.68261719 C-5.15804505 2.47880829 -18.41322604 3.53887707 -31.69384766 6.32910156 C-32.95720947 6.58965332 -32.95720947 6.58965332 -34.24609375 6.85546875 C-35.33942017 7.09559692 -35.33942017 7.09559692 -36.45483398 7.34057617 C-38.72082681 7.58646223 -40.33869718 7.24074074 -42.5 6.5625 C-41.84 6.5625 -41.18 6.5625 -40.5 6.5625 C-40.5 5.9025 -40.5 5.2425 -40.5 4.5625 C-37.16749315 3.91235394 -33.83385757 3.2681808 -30.5 2.625 C-29.56542969 2.44259766 -28.63085938 2.26019531 -27.66796875 2.07226562 C-18.15623356 0.24308578 -9.69964719 -0.55372002 0 0 Z " fill="#006714" transform="translate(773.5,656.4375)"/>
<path d="M0 0 C0.66 0.99 1.32 1.98 2 3 C1.3503125 4.175625 1.3503125 4.175625 0.6875 5.375 C-0.95541242 8.90421927 -2.04396918 12.27889211 -3.109375 16.0078125 C-4.56934458 20.91279802 -6.25830609 25.74019811 -7.9140625 30.58203125 C-8.80831887 33.3966871 -9.50192681 36.09457304 -10 39 C-11.485 39.495 -11.485 39.495 -13 40 C-11.74962137 32.01192731 -9.30870376 24.51537789 -6.6315918 16.91040039 C-5.92859257 14.91218133 -5.23606627 12.91054994 -4.54492188 10.90820312 C-1.151371 1.151371 -1.151371 1.151371 0 0 Z " fill="#EF2603" transform="translate(466,492)"/>
<path d="M0 0 C0.33 0 0.66 0 1 0 C0.5686137 6.41040045 -1.78702741 10.99452676 -4.875 16.5625 C-5.76863502 18.20941526 -6.66187344 19.85654579 -7.5546875 21.50390625 C-8.19071899 22.66599609 -8.19071899 22.66599609 -8.83959961 23.8515625 C-10.28989064 26.53672158 -11.64335606 29.26658388 -13 32 C-14.29908722 34.35486713 -15.65048463 36.67324936 -17 39 C-17.66 39 -18.32 39 -19 39 C-17.75741632 35.02402298 -16.30571052 31.41304627 -14.35546875 27.734375 C-13.84306641 26.76113281 -13.33066406 25.78789062 -12.80273438 24.78515625 C-12.26970703 23.78355469 -11.73667969 22.78195312 -11.1875 21.75 C-10.13848082 19.76607004 -9.09029651 17.78169839 -8.04296875 15.796875 C-7.53556152 14.83587891 -7.0281543 13.87488281 -6.50537109 12.88476562 C-4.27908579 8.61850108 -2.13062728 4.31468349 0 0 Z " fill="#ED2702" transform="translate(531,360)"/>
<path d="M0 0 C0.75 1.5625 0.75 1.5625 1 4 C0.15192783 5.66222145 -0.71986885 7.31633811 -1.703125 8.90234375 C-3.16434214 11.26581847 -4.48940349 13.6815395 -5.8125 16.125 C-6.32039063 17.053125 -6.82828125 17.98125 -7.3515625 18.9375 C-8.53544072 21.13693252 -9.69526266 23.34099685 -10.8359375 25.5625 C-11.14426514 26.15530762 -11.45259277 26.74811523 -11.77026367 27.35888672 C-12.64903654 29.05093967 -13.51810529 30.74802184 -14.38671875 32.4453125 C-16 35 -16 35 -19 36 C-17.72105036 31.863433 -16.16813227 28.17691232 -14.1015625 24.375 C-13.53953125 23.33859375 -12.9775 22.3021875 -12.3984375 21.234375 C-11.81320312 20.16703125 -11.22796875 19.0996875 -10.625 18 C-10.0475 16.93265625 -9.47 15.8653125 -8.875 14.765625 C-6.11039348 9.69086782 -3.33075086 4.72540024 0 0 Z " fill="#EF2501" transform="translate(511,400)"/>
<path d="M0 0 C0.33 0 0.66 0 1 0 C1 1.65 1 3.3 1 5 C1.66 5 2.32 5 3 5 C3.73971018 8.43765887 4.22921673 11.80644913 4.53515625 15.30859375 C4.62216797 16.30310547 4.70917969 17.29761719 4.79882812 18.32226562 C4.88583984 19.35029297 4.97285156 20.37832031 5.0625 21.4375 C5.15337891 22.46166016 5.24425781 23.48582031 5.33789062 24.54101562 C5.75392925 29.37394547 6.12494638 34.14375071 6 39 C5.67 38.34 5.34 37.68 5 37 C4.34 37 3.68 37 3 37 C2.94465088 36.29915283 2.88930176 35.59830566 2.83227539 34.8762207 C2.57875273 31.68806115 2.32067224 28.50028627 2.0625 25.3125 C1.97548828 24.20970703 1.88847656 23.10691406 1.79882812 21.97070312 C1.71181641 20.90400391 1.62480469 19.83730469 1.53515625 18.73828125 C1.456604 17.75899658 1.37805176 16.77971191 1.29711914 15.77075195 C1.01403293 13.13086252 0.53822048 10.59769223 0 8 C-0.11678799 5.32321927 -0.0454506 2.68158543 0 0 Z " fill="#006E1E" transform="translate(888,475)"/>
<path d="M0 0 C1.17454133 3.52362398 0.75096304 4.85569178 -0.14453125 8.41015625 C-0.40943359 9.48330078 -0.67433594 10.55644531 -0.94726562 11.66210938 C-1.37555664 13.34530273 -1.37555664 13.34530273 -1.8125 15.0625 C-3.71829623 22.68120069 -5.54995235 30.27982881 -7 38 C-7.33 38 -7.66 38 -8 38 C-8.32470487 28.09650139 -6.30810507 19.01356671 -4 9.4375 C-3.8340332 8.73423584 -3.66806641 8.03097168 -3.49707031 7.30639648 C-2.23535109 2.23535109 -2.23535109 2.23535109 0 0 Z " fill="#006512" transform="translate(635,490)"/>
<path d="M0 0 C0.33 0.66 0.66 1.32 1 2 C1.66 2 2.32 2 3 2 C6.12592272 13.09868839 8.95439495 23.37759035 8 35 C7.67 35 7.34 35 7 35 C5.99907944 30.49851949 5.00227605 25.99615458 4.00927734 21.49291992 C3.67089031 19.96109408 3.33137949 18.42951603 2.99072266 16.89819336 C2.50127241 14.69709423 2.01587027 12.49513565 1.53125 10.29296875 C1.37813354 9.60849167 1.22501709 8.92401459 1.06726074 8.21879578 C0.45223989 5.40826626 0 2.8878557 0 0 Z " fill="#006E16" transform="translate(880,439)"/>
<path d="M0 0 C1.3000875 2.15685361 2.05523837 3.44943512 1.79980469 5.99536133 C1.59258789 6.6839624 1.38537109 7.37256348 1.171875 8.08203125 C0.94886719 8.84966797 0.72585938 9.61730469 0.49609375 10.40820312 C0.24988281 11.20162109 0.00367188 11.99503906 -0.25 12.8125 C-0.48074219 13.59431641 -0.71148438 14.37613281 -0.94921875 15.18164062 C-1.40494458 16.72261186 -1.86640449 18.26190058 -2.33398438 19.79931641 C-3.2591134 22.85617602 -4.13020296 25.92699063 -5 29 C-5.66 29 -6.32 29 -7 29 C-7.33 29.66 -7.66 30.32 -8 31 C-7.3157196 24.28248676 -5.37116568 18.014434 -3.4375 11.5625 C-3.10814453 10.44939453 -2.77878906 9.33628906 -2.43945312 8.18945312 C-1.6306592 5.45830842 -0.81739587 2.72858014 0 0 Z " fill="#EF2C04" transform="translate(585,215)"/>
<path d="M0 0 C4.66663712 2.33331856 4.89399394 3.43698687 7 8 C7.721875 9.010625 8.44375 10.02125 9.1875 11.0625 C11.07336634 14.11890406 11.41189904 15.49885815 11 19 C8.59927045 16.11912454 6.52708963 13.43595166 5 10 C4.67 10.66 4.34 11.32 4 12 C3.01 12 2.02 12 1 12 C0.67 8.04 0.34 4.08 0 0 Z " fill="#020550" transform="translate(655,224)"/>
<path d="M0 0 C0.33 0 0.66 0 1 0 C0.54354203 7.44747219 -0.21115381 14.70981607 -1.5234375 22.0546875 C-2.27187158 26.68025553 -2.65064006 31.32960918 -3 36 C-3.33 36 -3.66 36 -4 36 C-4.33418056 24.02776723 -4.59977517 12.56404459 -1 1 C-0.67 0.67 -0.34 0.34 0 0 Z " fill="#ED2702" transform="translate(188,470)"/>
<path d="M0 0 C0.33 0 0.66 0 1 0 C1.33 10.23 1.66 20.46 2 31 C1.34 31.33 0.68 31.66 0 32 C-1.11301484 28.66095549 -1.12936638 26.13370628 -1.1328125 22.6171875 C-1.13474609 20.74353516 -1.13474609 20.74353516 -1.13671875 18.83203125 C-1.13285156 17.52621094 -1.12898437 16.22039062 -1.125 14.875 C-1.12886719 13.56144531 -1.13273438 12.24789063 -1.13671875 10.89453125 C-1.13542969 9.64800781 -1.13414062 8.40148437 -1.1328125 7.1171875 C-1.13168457 5.96847168 -1.13055664 4.81975586 -1.12939453 3.63623047 C-1 1 -1 1 0 0 Z " fill="#000251" transform="translate(595,479)"/>
<path d="M0 0 C5.41977092 -0.1577182 10.42201667 0.40796638 15.75 1.375 C16.50410156 1.50132812 17.25820313 1.62765625 18.03515625 1.7578125 C21.60065284 2.39111562 23.94996901 2.96664601 27 5 C28.65549531 5.38499891 30.3222433 5.72793135 32 6 C32 6.33 32 6.66 32 7 C24.91487018 6.60410643 17.93426666 5.7830288 10.9375 4.625 C9.83063843 4.4542395 9.83063843 4.4542395 8.70141602 4.2800293 C2.27267966 3.16583392 2.27267966 3.16583392 0 0 Z " fill="#00640E" transform="translate(372,733)"/>
<path d="M0 0 C0.33 0 0.66 0 1 0 C1.05034615 4.01607353 1.08615418 8.03201885 1.10986328 12.04833984 C1.12458051 14.06744873 1.15002367 16.08647052 1.17578125 18.10546875 C1.2194088 26.96186204 0.50827204 35.27854869 -1 44 C-1.66 44 -2.32 44 -3 44 C-2.855625 42.88625 -2.71125 41.7725 -2.5625 40.625 C-1.39968938 31.20787172 -0.76002202 21.86031971 -0.4375 12.375 C-0.39431641 11.18003906 -0.35113281 9.98507812 -0.30664062 8.75390625 C-0.20159693 5.83602594 -0.09944352 2.91807562 0 0 Z " fill="#000051" transform="translate(662,278)"/>
<path d="M0 0 C0 0.33 0 0.66 0 1 C-9.9 1 -19.8 1 -30 1 C-30 0.67 -30 0.34 -30 0 C-19.48425635 -2.2390937 -10.43594851 -2.82325177 0 0 Z " fill="#F11601" transform="translate(169,682)"/>
<path d="M0 0 C9.24 0 18.48 0 28 0 C28 0.33 28 0.66 28 1 C27.31292969 1.06058594 26.62585938 1.12117187 25.91796875 1.18359375 C24.56638672 1.30927734 24.56638672 1.30927734 23.1875 1.4375 C21.84751953 1.55931641 21.84751953 1.55931641 20.48046875 1.68359375 C17.87256441 1.93489767 17.87256441 1.93489767 15 3 C12.40930029 2.75367118 9.88163753 2.44871022 7.3125 2.0625 C6.2596582 1.91264648 6.2596582 1.91264648 5.18554688 1.75976562 C3.45613473 1.51270675 1.7279373 1.25717148 0 1 C0 0.67 0 0.34 0 0 Z " fill="#067A2C" transform="translate(481,745)"/>
<path d="M0 0 C-0.33 0.99 -0.66 1.98 -1 3 C-6.61 3 -12.22 3 -18 3 C-18 2.67 -18 2.34 -18 2 C-19.65 1.67 -21.3 1.34 -23 1 C-23 0.67 -23 0.34 -23 0 C-19.72966072 -0.19689005 -16.45872059 -0.38089008 -13.1875 -0.5625 C-12.25873047 -0.61857422 -11.32996094 -0.67464844 -10.37304688 -0.73242188 C-9.48037109 -0.78076172 -8.58769531 -0.82910156 -7.66796875 -0.87890625 C-6.84578857 -0.9260376 -6.0236084 -0.97316895 -5.17651367 -1.02172852 C-3 -1 -3 -1 0 0 Z " fill="#007D2D" transform="translate(787,656)"/>
<path d="M0 0 C9.57 0 19.14 0 29 0 C25.71508627 2.18994248 24.16904361 2.35277339 20.3125 2.625 C18.82169922 2.73714844 18.82169922 2.73714844 17.30078125 2.8515625 C16.16189453 2.92503906 16.16189453 2.92503906 15 3 C15 2.34 15 1.68 15 1 C10.05 1 5.1 1 0 1 C0 0.67 0 0.34 0 0 Z " fill="#F03E09" transform="translate(121,680)"/>
<path d="M0 0 C0.33 0 0.66 0 1 0 C0.35878726 9.06134845 -0.73480542 18.00852005 -2 27 C-2.33 27 -2.66 27 -3 27 C-3.02712325 24.12493579 -3.04689851 21.25013092 -3.0625 18.375 C-3.07087891 17.56675781 -3.07925781 16.75851562 -3.08789062 15.92578125 C-3.13352273 4.70028409 -3.13352273 4.70028409 0 0 Z " fill="#005E07" transform="translate(624,541)"/>
<path d="M0 0 C1.52519276 0.08937803 3.04681929 0.24537146 4.5625 0.4375 C5.38878906 0.53933594 6.21507812 0.64117188 7.06640625 0.74609375 C7.70449219 0.82988281 8.34257812 0.91367187 9 1 C9 1.66 9 2.32 9 3 C12.3 3 15.6 3 19 3 C19 3.33 19 3.66 19 4 C9.43529656 4.29032827 0.42817197 3.46051903 -9 2 C-9 1.67 -9 1.34 -9 1 C-7.700625 1.020625 -6.40125 1.04125 -5.0625 1.0625 C-3.70834367 1.08399454 -2.35243917 1.07148199 -1 1 C-0.67 0.67 -0.34 0.34 0 0 Z " fill="#00650E" transform="translate(434,742)"/>
<path d="M0 0 C0.98613281 0.04833984 1.97226562 0.09667969 2.98828125 0.14648438 C4.53708984 0.2305957 4.53708984 0.2305957 6.1171875 0.31640625 C7.15746094 0.36861328 8.19773437 0.42082031 9.26953125 0.47460938 C11.84403866 0.60451571 14.41818046 0.73948877 16.9921875 0.87890625 C16.9921875 1.20890625 16.9921875 1.53890625 16.9921875 1.87890625 C7.96800973 2.56928051 -0.95142572 3.03068927 -10.0078125 2.87890625 C-6.10278756 0.27555629 -4.61288945 -0.23859773 0 0 Z " fill="#005B07" transform="translate(767.0078125,656.12109375)"/>
<path d="M0 0 C0.33 0 0.66 0 1 0 C1 1.65 1 3.3 1 5 C1.66 5 2.32 5 3 5 C3.77313045 10.9114744 4.14819277 16.1314592 3 22 C2.67 22 2.34 22 2 22 C-0.29612756 7.40318907 -0.29612756 7.40318907 0 0 Z " fill="#006109" transform="translate(888,475)"/>
<path d="M0 0 C2 2 2 2 2.23046875 4.5390625 C2.1482659 10.44272175 1.89817936 16.16183418 1 22 C0.67 22 0.34 22 0 22 C-1.0773541 14.50824535 -0.8388516 7.51094816 0 0 Z " fill="#007120" transform="translate(891,556)"/>
<path d="M0 0 C0.66 0 1.32 0 2 0 C1.34 4.62 0.68 9.24 0 14 C-0.99 14 -1.98 14 -3 14 C-2.69249629 11.85344499 -2.3788634 9.70776715 -2.0625 7.5625 C-1.88847656 6.36753906 -1.71445312 5.17257812 -1.53515625 3.94140625 C-1 1 -1 1 0 0 Z " fill="#0A0C66" transform="translate(659,322)"/>
<path d="M0 0 C0.55816406 0.47953125 1.11632812 0.9590625 1.69140625 1.453125 C-4.95269333 1.66745079 -10.84065242 0.96546201 -17.30859375 -0.546875 C-17.30859375 -0.876875 -17.30859375 -1.206875 -17.30859375 -1.546875 C-11.85451437 -3.18309881 -4.8107843 -3.22346968 0 0 Z " fill="#006611" transform="translate(422.30859375,741.546875)"/>
<path d="M0 0 C0.66 0.66 1.32 1.32 2 2 C1.96712417 4.72869407 1.43602229 7.2966618 1 10 C0.01 10 -0.98 10 -2 10 C-2.33 7.36 -2.66 4.72 -3 2 C-2.01 1.34 -1.02 0.68 0 0 Z " fill="#051E49" transform="translate(598,509)"/>
<path d="M0 0 C2.35119399 3.52679099 2.21443452 5.02879485 2.125 9.1875 C2.10695313 10.27417969 2.08890625 11.36085938 2.0703125 12.48046875 C2.03550781 13.72763672 2.03550781 13.72763672 2 15 C1.01 15.495 1.01 15.495 0 16 C-0.1958009 14.08416353 -0.38132214 12.16727461 -0.5625 10.25 C-0.66691406 9.18265625 -0.77132812 8.1153125 -0.87890625 7.015625 C-0.98560074 4.35858796 -0.81930395 2.50039428 0 0 Z " fill="#0B0E6C" transform="translate(682,285)"/>
<path d="M0 0 C0.33 0 0.66 0 1 0 C1.22281874 1.91503674 1.42771076 3.83216506 1.625 5.75 C1.74101563 6.81734375 1.85703125 7.8846875 1.9765625 8.984375 C2.00029475 12.03792399 1.61420985 13.46162421 0 16 C-0.33 16 -0.66 16 -1 16 C-1.11138159 10.54230189 -0.91657981 5.38490641 0 0 Z " fill="#005F06" transform="translate(890,571)"/>
<path d="M0 0 C5.4185766 -0.22577402 9.77487721 0.53329887 15 2 C11.59289812 4.41336383 8.77743504 4.09345842 4.83984375 3.4921875 C2.53813676 2.87644423 1.35755881 1.95149079 0 0 Z " fill="#026B1B" transform="translate(372,733)"/>
<path d="M0 0 C1.35304209 4.05912626 0.15216503 5.77149591 -1.4375 9.6875 C-2.14712891 11.45673828 -2.14712891 11.45673828 -2.87109375 13.26171875 C-3.24363281 14.16535156 -3.61617187 15.06898438 -4 16 C-5.34192181 11.97423458 -4.31842495 8.89465762 -3 5 C-1.375 2 -1.375 2 0 0 Z " fill="#ED2301" transform="translate(206,406)"/>
<path d="M0 0 C1.64426374 4.93279121 -0.47154982 8.88212461 -2.625 13.4375 C-3.07875 14.283125 -3.5325 15.12875 -4 16 C-4.66 15.67 -5.32 15.34 -6 15 C-4.02 10.05 -2.04 5.1 0 0 Z " fill="#00620C" transform="translate(870,654)"/>
<path d="M0 0 C1.21816406 0.03480469 1.21816406 0.03480469 2.4609375 0.0703125 C3.68683594 0.09738281 3.68683594 0.09738281 4.9375 0.125 C5.87722656 0.15980469 5.87722656 0.15980469 6.8359375 0.1953125 C3.42735164 3.60389836 -1.48607715 4.12539644 -6.1640625 4.3203125 C-6.8240625 4.2790625 -7.4840625 4.2378125 -8.1640625 4.1953125 C-7.5453125 3.9065625 -6.9265625 3.6178125 -6.2890625 3.3203125 C-0.02092904 0.0018889 -0.02092904 0.0018889 0 0 Z " fill="#005F0C" transform="translate(559.1640625,735.8046875)"/>
<path d="M0 0 C0.33 0 0.66 0 1 0 C0.88490339 1.41750563 0.75746342 2.83401169 0.625 4.25 C0.55539063 5.03890625 0.48578125 5.8278125 0.4140625 6.640625 C-0.01507113 9.085877 -0.78600638 10.84836903 -2 13 C-3.28571429 5.57142857 -3.28571429 5.57142857 -2 2 C-1.34 2 -0.68 2 0 2 C0 1.34 0 0.68 0 0 Z " fill="#F01D00" transform="translate(191,456)"/>
<path d="M0 0 C4.30614589 0.47846065 6.24880549 1.65926381 9 5 C9.33 5.99 9.66 6.98 10 8 C6.05205855 6.32971708 3.18203882 3.8204435 0 1 C0 0.67 0 0.34 0 0 Z " fill="#00570D" transform="translate(633,104)"/>
<path d="M0 0 C-1.45264038 0.8638129 -2.9123163 1.71580454 -4.375 2.5625 C-5.59316406 3.27599609 -5.59316406 3.27599609 -6.8359375 4.00390625 C-7.55007813 4.33261719 -8.26421875 4.66132812 -9 5 C-9.66 4.67 -10.32 4.34 -11 4 C-11 3.34 -11 2.68 -11 2 C-9.54494642 1.47007308 -8.08581873 0.9513211 -6.625 0.4375 C-5.81289063 0.14746094 -5.00078125 -0.14257812 -4.1640625 -0.44140625 C-2 -1 -2 -1 0 0 Z " fill="#00610D" transform="translate(656,702)"/>
<path d="M0 0 C0.33 0 0.66 0 1 0 C0.91231752 1.5843317 0.80412671 3.16753567 0.6875 4.75 C0.62949219 5.63171875 0.57148438 6.5134375 0.51171875 7.421875 C-0.0641181 10.32303774 -1.07596148 11.79225607 -3 14 C-2.48594831 9.03083364 -1.76615118 4.70973649 0 0 Z " fill="#ED2101" transform="translate(452,533)"/>
<path d="M0 0 C2 3 2 3 1.3125 6.625 C0.879375 7.73875 0.44625 8.8525 0 10 C-0.99 10.33 -1.98 10.66 -3 11 C-2.69217504 9.35328588 -2.37860766 7.70764424 -2.0625 6.0625 C-1.88847656 5.14597656 -1.71445312 4.22945312 -1.53515625 3.28515625 C-1 1 -1 1 0 0 Z " fill="#EF1F01" transform="translate(456,521)"/>
<path d="M0 0 C0.66 0.33 1.32 0.66 2 1 C0.06273348 5.58826282 -1.48864333 7.80528594 -6 10 C-4.34832443 6.4213696 -2.21713508 3.25179812 0 0 Z " fill="#01681D" transform="translate(690,401)"/>
<path d="M0 0 C1.9375 0.3125 1.9375 0.3125 4 1 C4.33 1.99 4.66 2.98 5 4 C5.66 4.66 6.32 5.32 7 6 C5.68 6.33 4.36 6.66 3 7 C0 3.375 0 3.375 0 0 Z " fill="#04560F" transform="translate(620,93)"/>
<path d="M0 0 C1.98 0.99 1.98 0.99 4 2 C4 2.66 4 3.32 4 4 C5.32 4.66 6.64 5.32 8 6 C8 6.66 8 7.32 8 8 C6.25 7.9375 6.25 7.9375 4 7 C2.40498463 4.75835678 1.25456982 2.46433357 0 0 Z " fill="#016B17" transform="translate(784,280)"/>
<path d="M0 0 C2.61500768 2.36595933 4.38999603 4.86049226 6 8 C5.67 8.66 5.34 9.32 5 10 C4.34 10 3.68 10 3 10 C2.49596232 8.70990357 1.99690074 7.41786211 1.5 6.125 C1.2215625 5.40570313 0.943125 4.68640625 0.65625 3.9453125 C0 2 0 2 0 0 Z " fill="#005D0A" transform="translate(662,154)"/>
<path d="M0 0 C-0.66 0 -1.32 0 -2 0 C-2 0.66 -2 1.32 -2 2 C-4.3125 2.625 -4.3125 2.625 -7 3 C-7.99 2.34 -8.98 1.68 -10 1 C-3.71428571 -1.42857143 -3.71428571 -1.42857143 0 0 Z " fill="#005606" transform="translate(634,873)"/>
<path d="M0 0 C1.32 0.33 2.64 0.66 4 1 C1.69 2.65 -0.62 4.3 -3 6 C-3.66 5.67 -4.32 5.34 -5 5 C-2.75 2.4375 -2.75 2.4375 0 0 Z " fill="#006A10" transform="translate(739,822)"/>
<path d="M0 0 C-2.90092502 1.93395001 -3.89674737 2.30131941 -7.1875 2.625 C-8.445625 2.74875 -9.70375 2.8725 -11 3 C-9 0 -9 0 -7.1875 -0.75 C-4.59271 -1.04654743 -2.52136205 -0.63034051 0 0 Z " fill="#F02B00" transform="translate(299,673)"/>
<path d="M0 0 C1.796875 0.37109375 1.796875 0.37109375 4 1 C4.70640625 1.17660156 5.4128125 1.35320313 6.140625 1.53515625 C8.09375 2.0234375 10.046875 2.51171875 12 3 C12 3.33 12 3.66 12 4 C10.20759337 3.88610125 8.41605165 3.75852313 6.625 3.625 C5.12839844 3.52058594 5.12839844 3.52058594 3.6015625 3.4140625 C1 3 1 3 -1 1 C-0.67 0.67 -0.34 0.34 0 0 Z " fill="#006B0E" transform="translate(669,600)"/>
<path d="M0 0 C0.33 0 0.66 0 1 0 C1.08333357 4.8333472 0.95261487 9.23692563 0 14 C-0.33 14 -0.66 14 -1 14 C-1.33 11.03 -1.66 8.06 -2 5 C-1.34 5 -0.68 5 0 5 C0 3.35 0 1.7 0 0 Z " fill="#EF3B07" transform="translate(439,592)"/>
<path d="M0 0 C0.66 0 1.32 0 2 0 C1.67 3.63 1.34 7.26 1 11 C0.67 11 0.34 11 0 11 C-1.125 3.375 -1.125 3.375 0 0 Z " fill="#005D04" transform="translate(625,529)"/>
<path d="M0 0 C0.99 0 1.98 0 3 0 C3.99 2.31 4.98 4.62 6 7 C5.34 7.66 4.68 8.32 4 9 C0 2.25 0 2.25 0 0 Z " fill="#00610F" transform="translate(849,364)"/>
<path d="M0 0 C0.33 0.66 0.66 1.32 1 2 C1.66 2 2.32 2 3 2 C4.16552619 6.19589427 4.08954032 6.82091936 2 11 C1.34 7.37 0.68 3.74 0 0 Z " fill="#00600C" transform="translate(880,439)"/>
<path d="M0 0 C0.33 0.66 0.66 1.32 1 2 C-1.16798732 7.4770206 -1.16798732 7.4770206 -4.1875 9.375 C-4.785625 9.58125 -5.38375 9.7875 -6 10 C-4.34832443 6.4213696 -2.21713508 3.25179812 0 0 Z " fill="#EF3605" transform="translate(246,330)"/>
<path d="M0 0 C0.66 0 1.32 0 2 0 C3.03039555 4.53374042 3.17766075 5.64467851 1 10 C0.67 6.7 0.34 3.4 0 0 Z " fill="#000154" transform="translate(680,279)"/>
<path d="M0 0 C3.05882701 1.52941351 3.68951234 3.94219546 5 7 C4.67 7.66 4.34 8.32 4 9 C0.06153846 5.67692308 0.06153846 5.67692308 -0.25 2.25 C-0.1675 1.5075 -0.085 0.765 0 0 Z " fill="#0A0D64" transform="translate(666,240)"/>
<path d="M0 0 C0.99 0.66 1.98 1.32 3 2 C0.1875 3.5625 0.1875 3.5625 -3 5 C-3.99 4.67 -4.98 4.34 -6 4 C-5 2 -5 2 -2.625 0.75 C-1.75875 0.5025 -0.8925 0.255 0 0 Z " fill="#005D0C" transform="translate(624,714)"/>
<path d="M0 0 C3.83736322 0.95934081 4.59660228 1.23609263 7 4 C6.67 4.99 6.34 5.98 6 7 C4.02 4.69 2.04 2.38 0 0 Z " fill="#006711" transform="translate(723,623)"/>
<path d="M0 0 C0 3.57575896 -1.08840607 5.05295935 -3 8 C-3.66 7.01 -4.32 6.02 -5 5 C-3.35 3.35 -1.7 1.7 0 0 Z " fill="#040664" transform="translate(629,441)"/>
<path d="M0 0 C0.66 0.33 1.32 0.66 2 1 C1.01 3.31 0.02 5.62 -1 8 C-1.99 7.67 -2.98 7.34 -4 7 C-2.68 4.69 -1.36 2.38 0 0 Z " fill="#090B64" transform="translate(629,401)"/>
<path d="M0 0 C3.7952131 1.49097658 5.61042731 3.75700849 8 7 C6.25 6.875 6.25 6.875 4 6 C1.75 2.9375 1.75 2.9375 0 0 Z " fill="#017120" transform="translate(772,269)"/>
<path d="M0 0 C0.66 0 1.32 0 2 0 C3.85776765 3.13498292 4.20140476 5.37471432 4 9 C0 4.5 0 4.5 0 0 Z " fill="#050B56" transform="translate(662,234)"/>
<path d="M0 0 C-0.33 0.66 -0.66 1.32 -1 2 C-3.92713788 2.94934202 -5.42831368 3.23176473 -8.3125 2.0625 C-8.869375 1.711875 -9.42625 1.36125 -10 1 C-6.52674819 -0.1577506 -3.63932552 -0.06866652 0 0 Z " fill="#005507" transform="translate(605,879)"/>
<path d="M0 0 C0.625 1.875 0.625 1.875 1 4 C0.34 4.66 -0.32 5.32 -1 6 C-1.99 6 -2.98 6 -4 6 C-2.84826645 3.53199953 -1.95216435 1.95216435 0 0 Z " fill="#005808" transform="translate(799,770)"/>
<path d="M0 0 C0 0.66 0 1.32 0 2 C-2.64 2 -5.28 2 -8 2 C-8 1.34 -8 0.68 -8 0 C-4.71303767 -0.79953138 -3.28976808 -1.09658936 0 0 Z " fill="#006211" transform="translate(531,743)"/>
<path d="M0 0 C2.31 0 4.62 0 7 0 C6.01 0.66 5.02 1.32 4 2 C4.66 2.66 5.32 3.32 6 4 C4.35 3.67 2.7 3.34 1 3 C0.67 2.01 0.34 1.02 0 0 Z " fill="#EF2700" transform="translate(81,676)"/>
<path d="M0 0 C2 3 2 3 1.625 5.1875 C1.41875 5.785625 1.2125 6.38375 1 7 C0.34 7 -0.32 7 -1 7 C-1.33 7.66 -1.66 8.32 -2 9 C-1.125 2.25 -1.125 2.25 0 0 Z " fill="#EE1B00" transform="translate(579,237)"/>
<path d="M0 0 C1.98 0.99 1.98 0.99 4 2 C3 5 3 5 1 7 C0.67 4.69 0.34 2.38 0 0 Z " fill="#0F2D4C" transform="translate(655,224)"/>
</svg>
