<?xml version="1.0" encoding="UTF-8"?>
<svg version="1.1" xmlns="http://www.w3.org/2000/svg" width="1024" height="1024">
<path d="M0 0 C337.92 0 675.84 0 1024 0 C1024 337.92 1024 675.84 1024 1024 C686.08 1024 348.16 1024 0 1024 C0 686.08 0 348.16 0 0 Z " fill="#FBFBFB" transform="translate(0,0)"/>
<path d="M0 0 C8.00058783 4.8995848 14.95400309 10.85358776 22 17 C22.81082031 17.69738281 23.62164063 18.39476563 24.45703125 19.11328125 C36.56799016 29.73873923 48.19772188 41.19624912 58 54 C58.74765625 54.93070313 59.4953125 55.86140625 60.265625 56.8203125 C74.63278898 74.94147739 86.38104237 94.79440167 97.5300293 114.99780273 C100.09523868 119.64398377 102.67999943 124.27912026 105.27246094 128.91015625 C106.33354748 130.8079956 107.38997177 132.70846195 108.43847656 134.61328125 C113.76942388 144.23242805 119.16769622 150.61661985 128.27050781 156.79931641 C131.31445686 158.91254924 134.21511091 161.20739634 137.125 163.5 C137.70942871 163.95769775 138.29385742 164.41539551 138.89599609 164.88696289 C143.55622082 168.56962298 147.95954326 172.46388278 152.3046875 176.515625 C154.37480293 178.4237314 156.46892245 180.2629711 158.60546875 182.09375 C163.58542637 186.43747067 168.26556903 191.07950431 172.93579102 195.75048828 C174.42641615 197.23893237 175.92487017 198.71917277 177.42382812 200.19921875 C183.73358562 206.47229199 189.46484654 213.02207361 195 220 C195.97638682 221.17397985 196.95627126 222.34507014 197.94140625 223.51171875 C210.65271511 238.80385901 221.72028117 255.66236186 231.04394531 273.22021484 C231.97849487 274.95996618 232.95370903 276.67767843 233.9296875 278.39453125 C254.95128143 316.00545533 265.95562259 358.4759651 271 401 C271.08588379 401.64543259 271.17176758 402.29086517 271.26025391 402.95585632 C272.05013697 409.26134027 272.17676585 415.50550343 272.203125 421.85546875 C272.21022995 422.98257767 272.2173349 424.10968658 272.22465515 425.27095032 C272.64775742 512.23172327 249.21039578 594.4889105 192.53662109 662.15478516 C191.14789392 663.82240511 189.78379795 665.5065952 188.42578125 667.19921875 C181.46254859 675.74025512 173.70294666 683.50952724 165.9375 691.3125 C165.38268951 691.87257751 164.82787903 692.43265503 164.2562561 693.00970459 C157.17265967 700.1452046 149.91583983 706.77783875 142 713 C140.5516045 714.17258587 139.1036576 715.34572616 137.65625 716.51953125 C127.23262486 724.83168189 116.4762372 732.21935764 105 739 C104.05769531 739.556875 103.11539062 740.11375 102.14453125 740.6875 C55.70182791 767.88531842 4.65610574 785.47366954 -49 791 C-50.36306274 791.14139404 -50.36306274 791.14139404 -51.75366211 791.28564453 C-62.33918221 792.2412046 -72.94228665 792.24351816 -83.5625 792.25 C-85.0572435 792.25101212 -85.0572435 792.25101212 -86.58218384 792.25204468 C-168.76285519 792.16394485 -246.43641008 761.43452613 -310 710 C-311.54107422 708.77023437 -311.54107422 708.77023437 -313.11328125 707.515625 C-321.49739974 700.6686165 -329.14671241 693.06479418 -336.8125 685.4375 C-337.34847809 684.90678894 -337.88445618 684.37607788 -338.43667603 683.82928467 C-345.4307755 676.88835036 -351.87587516 669.73577814 -358 662 C-358.94456864 660.85941426 -359.89293211 659.72194249 -360.84765625 658.58984375 C-361.94400391 657.27693359 -361.94400391 657.27693359 -363.0625 655.9375 C-363.81660156 655.03902344 -364.57070313 654.14054688 -365.34765625 653.21484375 C-367 651 -367 651 -367 649 C-321.56217837 632.13129845 -274.67500202 634.17219548 -227.78833008 642.72802734 C-218.40197394 644.43611952 -209.0166419 645.95460984 -199.5625 647.25 C-198.47018066 647.40073975 -197.37786133 647.55147949 -196.25244141 647.70678711 C-192.8376765 648.16282478 -189.41986106 648.58395292 -186 649 C-185.33993958 649.08687073 -184.67987915 649.17374146 -183.99981689 649.26324463 C-169.26272498 651.19069429 -154.59833863 651.39955665 -139.75 651.375 C-138.51288269 651.37445618 -137.27576538 651.37391235 -136.00115967 651.37335205 C-117.01954824 651.33501032 -98.66168202 650.68608619 -80 647 C-78.8769043 646.78037598 -77.75380859 646.56075195 -76.59667969 646.33447266 C-42.8395954 639.51841663 -9.94471363 628.02455407 21 613 C21.98419922 612.52836426 22.96839844 612.05672852 23.98242188 611.57080078 C38.49417514 604.60053283 52.40094418 596.83420136 66.24462891 588.62792969 C91.05351073 573.97033408 116.02198829 564.79104343 145 563 C145.8775293 562.94505371 146.75505859 562.89010742 147.65917969 562.83349609 C153.10425804 562.50446195 158.54996808 562.23191625 164 562 C154.18902692 550.36621218 140.39228788 546.9348652 126.19921875 543.359375 C124.46511144 542.91022486 122.73199591 542.45722443 121 542 C119.77869385 541.68421997 119.77869385 541.68421997 118.53271484 541.36206055 C113.01556013 539.76329382 109.97857863 537.6150163 106.25 533.3125 C89.12199738 515.06649592 60.57684135 507.68507607 36.11352539 506.87060547 C34.77491755 506.86412441 33.43627375 506.86316832 32.09765625 506.8671875 C31.37565536 506.86623077 30.65365448 506.86527405 29.90977478 506.86428833 C28.39468294 506.863613 26.8795881 506.86542168 25.36450195 506.86962891 C23.07170981 506.87497851 20.77911423 506.86966579 18.48632812 506.86328125 C11.26319967 506.8603382 4.16498814 506.97293685 -3 508 C-3.15746046 498.72538431 -2.74054839 489.60867717 -1.875 480.375 C-1.81164459 479.69757751 -1.74828918 479.02015503 -1.68301392 478.32220459 C3.35573315 425.56697342 14.99283255 378.10807499 48 336 C48.95199326 334.7787786 49.90382461 333.55743097 50.85546875 332.3359375 C51.75736238 331.18193974 52.65969861 330.02828774 53.5625 328.875 C54.00432617 328.31022949 54.44615234 327.74545898 54.90136719 327.16357422 C57.23754571 324.19202979 59.60874806 321.25782008 62.03515625 318.359375 C88.83245348 286.1459179 93.92785967 247.07667999 90.50390625 206.17578125 C83.34101136 134.58998236 51.16975343 73.55494187 10.4375 15.5625 C9.96127197 14.8830835 9.48504395 14.20366699 8.99438477 13.50366211 C6.82415909 10.44219709 4.60852493 7.49774519 2.16015625 4.65234375 C0 2 0 2 0 0 Z " fill="#00843C" transform="translate(621,94)"/>
<path d="M0 0 C-5.64145539 56.34658454 -34.86762948 114.60861803 -58.69042969 165.20898438 C-59.91356165 167.81577866 -61.11978129 170.42961301 -62.3203125 173.046875 C-67.50905809 184.29031017 -73.3375041 195.11624156 -79.32275391 205.95263672 C-84.98760304 216.24501617 -90.53512268 226.60025243 -96 237 C-96.31729065 237.60368408 -96.6345813 238.20736816 -96.96148682 238.8293457 C-123.76971262 289.9579612 -143.94147114 346.86723304 -151.5625 404.25 C-153.17705812 416.33679262 -155.36404309 427.57496909 -165.09375 435.76171875 C-204.42560307 463.45582415 -269.76075058 470.30205076 -316 481 C-316.81353943 481.18882751 -317.62707886 481.37765503 -318.465271 481.57220459 C-339.20522587 486.38350631 -359.93418872 490.83276264 -381 494 C-382.0415625 494.16371094 -383.083125 494.32742188 -384.15625 494.49609375 C-399.59171555 496.85428988 -414.91470781 497.30489241 -430.5 497.375 C-431.42604034 497.38294586 -432.35208069 497.39089172 -433.30618286 497.39907837 C-459.07242158 497.5691667 -482.978029 492.8510828 -506 481 C-506.33 480.34 -506.66 479.68 -507 479 C-506.02877701 479.07516846 -506.02877701 479.07516846 -505.03793335 479.15185547 C-440.84183316 484.63675409 -440.84183316 484.63675409 -377 478 C-377.53367187 476.90429688 -378.06734375 475.80859375 -378.6171875 474.6796875 C-391.89130905 446.71750776 -399.93638904 416.98678882 -404.8125 386.5 C-405.01979736 385.21303223 -405.22709473 383.92606445 -405.44067383 382.60009766 C-413.43353186 329.86948383 -406.8034311 274.36938913 -390 224 C-389.68450195 223.04528809 -389.36900391 222.09057617 -389.04394531 221.10693359 C-374.38602979 177.33824596 -350.16550399 137.36847264 -319.09765625 103.31640625 C-317.29408387 101.32475183 -315.54893904 99.29978143 -313.8125 97.25 C-305.85259855 88.14505472 -297.1726435 79.60363542 -287.671875 72.12109375 C-285.87754784 70.69664982 -284.11669259 69.22908949 -282.390625 67.72265625 C-268.06970836 55.2424224 -251.55097652 45.23997512 -235 36 C-234.28763184 35.59861816 -233.57526367 35.19723633 -232.84130859 34.78369141 C-164.02577098 -3.70118844 -77.28243768 -17.40706663 0 0 Z " fill="#F05119" transform="translate(590,198)"/>
<path d="M0 0 C3.05468344 2.9065085 5.11376664 6.20520774 7.25 9.8125 C7.64477539 10.47830078 8.03955078 11.14410156 8.44628906 11.83007812 C15.01218651 23.0329088 20.64539417 34.40435004 24 47 C24.19754883 47.73524902 24.39509766 48.47049805 24.59863281 49.22802734 C27.82119546 61.89939685 28.37149457 74.43551681 28.375 87.4375 C28.37690338 88.19686859 28.37880676 88.95623718 28.38076782 89.73861694 C28.37677315 103.81450711 27.27626478 117.47764575 23.0625 131 C22.76456543 131.96349365 22.46663086 132.9269873 22.15966797 133.91967773 C16.8327492 150.368105 8.94427864 165.87598953 -1 180 C-1.37946777 180.54317871 -1.75893555 181.08635742 -2.14990234 181.64599609 C-6.05486492 187.22660166 -10.06352753 192.73003285 -14.1015625 198.21484375 C-35.46410838 227.33010782 -50.11408204 256.53318302 -58 292 C-65.72872142 278.60354954 -62.07420237 251.38897876 -58.26879883 237.04125977 C-53.56684278 221.00316899 -45.45493215 206.55833087 -36.375 192.625 C-12.25305072 155.08094787 3.08320498 118.10436343 5 73 C5.04527832 71.94425781 5.09055664 70.88851562 5.13720703 69.80078125 C5.82530305 50.52257636 3.86066291 31.75543214 1.45751953 12.66650391 C0.93112896 8.44807613 0.45473731 4.22666362 0 0 Z " fill="#1F237C" transform="translate(656,226)"/>
<path d="M0 0 C7.26 0.66 14.52 1.32 22 2 C22 2.33 22 2.66 22 3 C18.37 3.33 14.74 3.66 11 4 C12.32 4.99 13.64 5.98 15 7 C11.14974121 6.39644592 8.13898841 5.23227397 4.6875 3.4375 C3.80449219 2.98246094 2.92148438 2.52742187 2.01171875 2.05859375 C1.34785156 1.70925781 0.68398437 1.35992188 0 1 C0 0.67 0 0.34 0 0 Z " fill="#EE380F" transform="translate(83,677)"/>
<path d="M0 0 C2.37254954 2.37254954 3.98483473 4.28496054 5.75 7.0625 C6.19859375 7.75472656 6.6471875 8.44695312 7.109375 9.16015625 C7.40328125 9.76730469 7.6971875 10.37445313 8 11 C7.67 11.66 7.34 12.32 7 13 C6.01 11.68 5.02 10.36 4 9 C3.67 10.65 3.34 12.3 3 14 C2.67 14 2.34 14 2 14 C1.34 9.38 0.68 4.76 0 0 Z " fill="#10136B" transform="translate(656,226)"/>
<path d="M0 0 C1.46300982 0.93018526 2.92025579 1.86944027 4.375 2.8125 C5.18710937 3.33457031 5.99921875 3.85664062 6.8359375 4.39453125 C9 6 9 6 11 9 C10.34 9 9.68 9 9 9 C8.67 9.99 8.34 10.98 8 12 C6.66081194 10.37982158 5.3288031 8.75370657 4 7.125 C3.2575 6.22007813 2.515 5.31515625 1.75 4.3828125 C0 2 0 2 0 0 Z " fill="#0F742C" transform="translate(621,94)"/>
<path d="M0 0 C0.99 0.33 1.98 0.66 3 1 C-0.96 4.465 -0.96 4.465 -5 8 C-5.66 7.67 -6.32 7.34 -7 7 C-4.69 4.69 -2.38 2.38 0 0 Z " fill="#F04214" transform="translate(273,299)"/>
<path d="M0 0 C1.51953125 1.17578125 1.51953125 1.17578125 3 3 C3.07421875 5.48046875 3.07421875 5.48046875 2.6875 8.1875 C2.56761719 9.08855469 2.44773437 9.98960937 2.32421875 10.91796875 C2.21722656 11.60503906 2.11023438 12.29210937 2 13 C0.21590198 9.93753253 -0.22880021 7.77920727 -0.125 4.25 C-0.10695313 3.45078125 -0.08890625 2.6515625 -0.0703125 1.828125 C-0.04710937 1.22484375 -0.02390625 0.6215625 0 0 Z " fill="#090A63" transform="translate(596,505)"/>
<path d="M0 0 C0.66 0.99 1.32 1.98 2 3 C0.02 5.31 -1.96 7.62 -4 10 C-4.33 9.34 -4.66 8.68 -5 8 C-4.00390625 6.0546875 -4.00390625 6.0546875 -2.5625 3.875 C-2.08941406 3.15054687 -1.61632812 2.42609375 -1.12890625 1.6796875 C-0.75636719 1.12539063 -0.38382813 0.57109375 0 0 Z " fill="#047425" transform="translate(653,452)"/>
<path d="M0 0 C0.33 0.99 0.66 1.98 1 3 C-1.57784846 5.64752004 -3.91648098 7.94432065 -7 10 C-5.33248852 6.05860922 -2.77289351 3.2107188 0 0 Z " fill="#047121" transform="translate(682,414)"/>
<path d="M0 0 C0.33 1.32 0.66 2.64 1 4 C-0.9375 6.25 -0.9375 6.25 -3 8 C-3.66 7.67 -4.32 7.34 -5 7 C-3.35 4.69 -1.7 2.38 0 0 Z " fill="#047424" transform="translate(696,395)"/>
</svg>
